<svg width="32" height="20" viewBox="0 0 32 20" fill="none" xmlns="http://www.w3.org/2000/svg">
<path d="M29 0H3C1.89543 0 1 0.89543 1 2V18C1 19.1046 1.89543 20 3 20H29C30.1046 20 31 19.1046 31 18V2C31 0.89543 30.1046 0 29 0Z" fill="black"/>
<path d="M8.78507 18.2336V17.1122C8.80111 16.9236 8.73449 16.7374 8.60249 16.6018C8.4705 16.4662 8.28613 16.3946 8.09722 16.4056C7.84568 16.3895 7.60522 16.5112 7.46918 16.7234C7.34511 16.5175 7.11867 16.3957 6.87853 16.4056C6.66573 16.393 6.46174 16.4922 6.34021 16.6673V16.4486H5.97198V18.2374H6.3346V17.2093C6.32121 17.0838 6.36372 16.9587 6.45083 16.8672C6.53795 16.7758 6.66086 16.7273 6.78694 16.7346C7.04488 16.7346 7.19068 16.9028 7.19068 17.2056V18.2355H7.55329V17.2093C7.54057 17.0839 7.58329 16.9592 7.67026 16.8679C7.75722 16.7766 7.87973 16.7279 8.00563 16.7346C8.27105 16.7346 8.41311 16.9028 8.41311 17.2056V18.2355L8.78507 18.2336ZM14.6094 16.4486H13.9589V15.9065H13.5944V16.4486H13.2206V16.7738H13.5944V17.6206C13.5944 18.0355 13.7402 18.2822 14.2 18.2822C14.3718 18.2827 14.5402 18.2348 14.686 18.1439L14.5739 17.8262C14.4696 17.8884 14.3513 17.9231 14.2299 17.9271C14.043 17.9271 13.957 17.8075 13.957 17.628V16.7701H14.6075L14.6094 16.4486ZM17.929 16.4037C17.7323 16.3997 17.5479 16.499 17.443 16.6654V16.4486H17.0879V18.2374H17.4468V17.228C17.4468 16.9327 17.5888 16.7421 17.843 16.7421C17.9262 16.7409 18.0087 16.7562 18.086 16.7869L18.2056 16.4486C18.1168 16.4168 18.0233 16.4004 17.929 16.4V16.4037ZM12.9103 16.5907C12.6902 16.4599 12.4372 16.395 12.1813 16.4037C11.729 16.4037 11.4524 16.6168 11.4524 16.9645C11.4524 17.2561 11.6542 17.4318 12.0542 17.4879L12.2411 17.514C12.4542 17.5439 12.5701 17.6187 12.5701 17.7196C12.5701 17.8579 12.4131 17.9477 12.1477 17.9477C11.934 17.9552 11.7242 17.8892 11.5533 17.7607L11.3664 18.0411C11.5942 18.1965 11.8645 18.2774 12.1402 18.2729C12.6561 18.2729 12.9421 18.0336 12.9421 17.6935C12.9421 17.3533 12.7234 17.2243 12.3365 17.1682L12.1496 17.1421C11.9813 17.1196 11.8318 17.0673 11.8318 16.9551C11.8318 16.843 11.9739 16.7346 12.1869 16.7346C12.3839 16.737 12.5769 16.7897 12.7477 16.8879L12.9103 16.5907ZM18.3309 17.3383C18.3184 17.5898 18.4129 17.8348 18.5909 18.0128C18.769 18.1909 19.014 18.2853 19.2654 18.2729C19.4989 18.2848 19.7283 18.2087 19.9084 18.0598L19.7215 17.7794C19.5871 17.8818 19.4232 17.9382 19.2542 17.9402C18.9418 17.9101 18.7033 17.6476 18.7033 17.3336C18.7033 17.0197 18.9418 16.7572 19.2542 16.7271C19.4232 16.7291 19.5871 16.7855 19.7215 16.8879L19.9084 16.6075C19.7283 16.4585 19.4989 16.3825 19.2654 16.3944C19.014 16.3819 18.769 16.4764 18.5909 16.6544C18.4129 16.8325 18.3184 17.0775 18.3309 17.329V17.3383ZM15.815 16.4037C15.2916 16.4037 14.9309 16.7776 14.9309 17.3383C14.9154 17.5863 15.0055 17.8293 15.1789 18.0074C15.3523 18.1854 15.5928 18.2818 15.8411 18.2729C16.1078 18.2821 16.3686 18.193 16.5739 18.0224L16.3869 17.757C16.2393 17.8753 16.0565 17.941 15.8673 17.9439C15.5959 17.9539 15.3617 17.7553 15.3271 17.486H16.6636C16.6636 17.4374 16.6636 17.3888 16.6636 17.3364C16.6636 16.7757 16.3234 16.4019 15.8206 16.4019L15.815 16.4037ZM15.815 16.7364C15.9379 16.7324 16.0572 16.7782 16.1458 16.8633C16.2345 16.9485 16.2851 17.0658 16.286 17.1888H15.3271C15.3412 16.9289 15.5605 16.7279 15.8206 16.7364H15.815ZM10.972 17.3402V16.4486H10.6131V16.6654C10.4721 16.4916 10.2573 16.3945 10.0337 16.4037C9.51493 16.4037 9.09441 16.8243 9.09441 17.343C9.09441 17.8617 9.51493 18.2822 10.0337 18.2822C10.2573 18.2915 10.4721 18.1944 10.6131 18.0206V18.2374H10.972V17.3402ZM9.52339 17.3402C9.51084 17.1839 9.56433 17.0294 9.67088 16.9143C9.77743 16.7993 9.92731 16.7341 10.0841 16.7346C10.3966 16.7647 10.6351 17.0272 10.6351 17.3411C10.6351 17.655 10.3966 17.9176 10.0841 17.9477C9.92731 17.9482 9.77743 17.883 9.67088 17.7679C9.56433 17.6528 9.51084 17.4984 9.52339 17.3421V17.3402ZM23.3346 16.4056C23.1379 16.4015 22.9535 16.5009 22.8486 16.6673V16.4486H22.4935V18.2374H22.8524V17.228C22.8524 16.9327 22.9944 16.7421 23.2486 16.7421C23.3318 16.7409 23.4143 16.7562 23.4916 16.7869L23.6112 16.4505C23.5224 16.4187 23.4289 16.4023 23.3346 16.4019V16.4056ZM26.2168 17.9794C26.2411 17.9791 26.2653 17.9836 26.2879 17.9925C26.3093 18.0013 26.329 18.014 26.3458 18.0299C26.3622 18.046 26.3755 18.065 26.3851 18.086C26.4042 18.1301 26.4042 18.1802 26.3851 18.2243C26.3755 18.2452 26.3622 18.2643 26.3458 18.2804C26.329 18.2963 26.3093 18.309 26.2879 18.3178C26.2655 18.3276 26.2413 18.3327 26.2168 18.3327C26.1445 18.3322 26.079 18.2899 26.0486 18.2243C26.0297 18.1801 26.0297 18.1301 26.0486 18.086C26.0581 18.065 26.0714 18.046 26.0879 18.0299C26.1047 18.014 26.1244 18.0013 26.1458 17.9925C26.168 17.9817 26.1922 17.9753 26.2168 17.9738V17.9794ZM26.2168 18.2953C26.2355 18.2954 26.254 18.2916 26.2711 18.2841C26.2871 18.2769 26.3017 18.2668 26.314 18.2542C26.3625 18.2013 26.3625 18.1202 26.314 18.0673C26.3017 18.0547 26.2872 18.0445 26.2711 18.0374C26.254 18.0299 26.2355 18.0261 26.2168 18.0262C26.1982 18.0262 26.1798 18.03 26.1626 18.0374C26.1458 18.0443 26.1306 18.0544 26.1178 18.0673C26.0693 18.1202 26.0693 18.2013 26.1178 18.2542C26.1307 18.267 26.1459 18.2771 26.1626 18.2841C26.18 18.2902 26.1985 18.2927 26.2168 18.2916V18.2953ZM26.2281 18.0729C26.2455 18.0721 26.2627 18.0773 26.2767 18.0879C26.2883 18.0975 26.2945 18.1121 26.2935 18.1271C26.294 18.1397 26.2893 18.1519 26.2804 18.1607C26.2696 18.1706 26.2557 18.1765 26.2411 18.1776L26.2953 18.2393H26.2524L26.2019 18.1776H26.1851V18.2393H26.1496V18.0748L26.2281 18.0729ZM26.1869 18.1047V18.1495H26.2281C26.2354 18.1517 26.2432 18.1517 26.2505 18.1495C26.2532 18.1442 26.2532 18.138 26.2505 18.1327C26.2532 18.1274 26.2532 18.1212 26.2505 18.1159C26.2432 18.1138 26.2354 18.1138 26.2281 18.1159L26.1869 18.1047ZM21.957 17.3439V16.4486H21.5982V16.6654C21.4572 16.4916 21.2424 16.3945 21.0187 16.4037C20.5 16.4037 20.0795 16.8243 20.0795 17.343C20.0795 17.8617 20.5 18.2822 21.0187 18.2822C21.2424 18.2915 21.4572 18.1944 21.5982 18.0206V18.2374H21.957V17.3439ZM20.5084 17.3439C20.4959 17.1876 20.5494 17.0332 20.6559 16.9181C20.7625 16.803 20.9124 16.7378 21.0692 16.7383C21.3817 16.7684 21.6201 17.0309 21.6201 17.3449C21.6201 17.6588 21.3817 17.9213 21.0692 17.9514C20.9124 17.9519 20.7625 17.8867 20.6559 17.7716C20.5494 17.6566 20.4959 17.5021 20.5084 17.3458V17.3439ZM25.5682 17.3439V15.7271H25.2094V16.6617C25.0684 16.4878 24.8536 16.3908 24.6299 16.4C24.1112 16.4 23.6907 16.8205 23.6907 17.3393C23.6907 17.858 24.1112 18.2785 24.6299 18.2785C24.8536 18.2877 25.0684 18.1907 25.2094 18.0168V18.2336H25.5682V17.3439ZM24.1196 17.3439C24.1071 17.1876 24.1606 17.0332 24.2671 16.9181C24.3737 16.803 24.5236 16.7378 24.6804 16.7383C24.979 16.7843 25.1989 17.0422 25.197 17.3443C25.1951 17.6465 24.9721 17.9017 24.6729 17.9439C24.5164 17.9444 24.3669 17.8794 24.2604 17.7648C24.1539 17.6501 24.1002 17.4962 24.1122 17.3402L24.1196 17.3439Z" fill="white"/>
<path d="M12.7869 2.82991H18.6748V13.4112H12.7869V2.82991Z" fill="#FF5F00"/>
<path d="M13.1608 8.1215C13.1591 6.05701 14.1069 4.10643 15.7309 2.83178C12.9719 0.663561 9.01002 0.97938 6.62943 3.55728C4.24885 6.13519 4.24885 10.1097 6.62943 12.6876C9.01002 15.2655 12.9719 15.5813 15.7309 13.4131C14.1063 12.138 13.1586 10.1866 13.1608 8.1215Z" fill="#EB001B"/>
<path d="M25.9813 12.5299V12.1156H26.0692V12.0299H25.8467V12.1156H25.9346V12.5299H25.9813ZM26.4131 12.5299V12.0299H26.3458L26.2673 12.387L26.1888 12.0299H26.1215V12.5299H26.1682V12.1513L26.2411 12.4763H26.2916L26.3645 12.1513V12.5299H26.4131Z" fill="#F79E1B"/>
<path d="M26.6187 8.12149C26.6187 10.6978 25.1476 13.048 22.8303 14.1738C20.5129 15.2997 17.7562 15.0035 15.7309 13.4112C17.3542 12.1355 18.3019 10.1852 18.3019 8.12056C18.3019 6.05596 17.3542 4.10564 15.7309 2.82991C17.7562 1.23759 20.5129 0.941469 22.8303 2.06731C25.1476 3.19315 26.6187 5.54329 26.6187 8.11963V8.12149Z" fill="#F79E1B"/>
</svg>
