<?xml version="1.0" standalone="no"?>
<!DOCTYPE svg PUBLIC "-//W3C//DTD SVG 1.0//EN" "http://www.w3.org/TR/2001/REC-SVG-20010904/DTD/svg10.dtd">
<svg xmlns="http://www.w3.org/2000/svg" xmlns:xlink="http://www.w3.org/1999/xlink" id="body_1" width="90" height="36">

<g transform="matrix(0.099723 0 0 0.099723 0.07479225 -0)">
    <path d="M278 68L178 68L178 354L99 354L99 68L0 68L0 4L278 4L278 68z" stroke="none" fill="#FFFFFF" fill-rule="nonzero" />
    <path d="M391 357L314 357L314 105L391 105L391 357z" stroke="none" fill="#FFFFFF" fill-rule="nonzero" />
    <path d="M518 357L441 357L441 4L518 4L518 357z" stroke="none" fill="#FFFFFF" fill-rule="nonzero" />
    <path d="M642 357L565 357L565 105L642 105L642 357z" stroke="none" fill="#FFFFFF" fill-rule="nonzero" />
    <path d="M901 355L828 355L828 319L827 319C 810.203 346.978 784.933 361 752 361C 727.696 361 708.932 353.742 695 340C 681.068 326.258 674.013 307.895 674 285C 674 236.539 702.443 208.494 760 201L760 201L828 193C 828 165.689 813.674 152 784 152C 754.166 152 725.935 160.274 699 178L699 178L699 120C 709.759 114.478 724.326 109.237 743 105C 761.674 100.763 778.679 98.9867 794 99C 865.416 99 901 134.93 901 206L901 206L901 355zM828 253L828 237L783 242C 757.895 245.257 745 256.649 745 276C 745 284.786 747.889 292.398 754 298C 760.111 303.602 768.561 305.987 779 306C 793.52 306 805.877 300.992 815 291C 824.123 281.008 827.993 268.308 828 253z" stroke="none" fill="#FFFFFF" fill-rule="nonzero" />
    <path d="M353 83C 375.92 83 394 64.6437 394 42C 394 19.3563 375.92 1 353 1C 330.08 1 311 19.3563 311 42C 311 64.6437 330.08 83 353 83z" stroke="#2E8AE6" stroke-width="1" fill="#EDF2F7" fill-rule="nonzero" />
    <path d="M606 83C 628.92 83 647 64.6437 647 42C 647 19.3563 628.92 1 606 1C 583.08 1 564 19.3563 564 42C 564 64.6437 583.08 83 606 83z" stroke="#2E8AE6" stroke-width="1" fill="#EDF2F7" fill-rule="nonzero" />
</g>
</svg>