<svg width="32" height="20" viewBox="0 0 32 20" fill="none" xmlns="http://www.w3.org/2000/svg">
<path d="M29 0H3C1.89543 0 1 0.89543 1 2V18C1 19.1046 1.89543 20 3 20H29C30.1046 20 31 19.1046 31 18V2C31 0.89543 30.1046 0 29 0Z" fill="white"/>
<path d="M3 0H29C30.1046 0 31 0.89543 31 2V4H1V2C1 0.89543 1.89543 0 3 0Z" fill="#1A1F71"/>
<path d="M1 16H31V18C31 19.1046 30.1046 20 29 20H3C1.89543 20 1 19.1046 1 18V16Z" fill="#F7B600"/>
<path d="M13.0045 13.6057L14.0868 6.63001H15.8168L14.7346 13.6057H13.0045Z" fill="#1A1F71"/>
<path d="M21.01 6.80122C20.6679 6.66122 20.1299 6.50855 19.4597 6.50855C17.7493 6.50855 16.5453 7.45518 16.5353 8.81069C16.5244 9.81337 17.3945 10.3726 18.0504 10.7058C18.7245 11.0474 18.951 11.266 18.9484 11.5715C18.9437 12.0387 18.4103 12.2527 17.9129 12.2527C17.2202 12.2527 16.8522 12.1473 16.2833 11.8869L16.0607 11.7759L15.8188 13.3373C16.2222 13.5316 16.9701 13.7002 17.7462 13.7091C19.564 13.7091 20.7452 12.7739 20.759 11.3264C20.7653 10.5313 20.3043 9.92865 19.3059 9.43107C18.7013 9.10759 18.3302 8.89332 18.3345 8.56592C18.3349 8.27603 18.6479 7.96564 19.3255 7.96564C19.8914 7.95616 20.3011 8.09194 20.6203 8.23369L20.7757 8.31343L21.01 6.80122Z" fill="#1A1F71"/>
<path d="M23.3136 11.1325C23.457 10.7316 24.0028 9.18269 24.0028 9.18269C23.9927 9.20113 24.1454 8.77866 24.2327 8.5172L24.3495 9.11882C24.3495 9.11882 24.6815 10.7838 24.7499 11.1325H23.3136ZM25.4479 6.63712H24.1109C23.6962 6.63712 23.3858 6.76053 23.2042 7.21536L20.6349 13.6081H22.4521C22.4521 13.6081 22.7485 12.7481 22.8158 12.5594C23.014 12.5594 24.7796 12.563 25.0317 12.563C25.0835 12.8065 25.2423 13.6081 25.2423 13.6081H26.8481L25.4479 6.63712Z" fill="#1A1F71"/>
<path d="M7.29251 7.54083C6.76063 7.21683 6.15373 6.95633 5.47504 6.77567L5.49799 6.63114H8.28787C8.66358 6.64659 8.96755 6.77763 9.07214 7.21968L9.6784 10.4249L9.85978 11.3916L11.5531 6.63588H13.3864L10.662 13.5985L8.831 13.5996L7.29251 7.54083Z" fill="#1A1F71"/>
</svg>
