<svg width="100" height="100" viewBox="0 0 100 100" fill="none" xmlns="http://www.w3.org/2000/svg">
<circle cx="26.5" cy="68.5" r="3.5" stroke="#004D99" stroke-width="2"/>
<circle cx="33.5" cy="55.5" r="5.5" stroke="#004D99" stroke-width="2"/>
<circle cx="40.5" cy="68.5" r="4.5" fill="#004D99" stroke="#004D99" stroke-width="2"/>
<path fill-rule="evenodd" clip-rule="evenodd" d="M67.2502 73L58.2813 73C57.5736 73 57 72.4264 57 71.7187L57 62.7498C57 62.0422 57.5736 62.1092 58.2813 62.1092C58.9889 62.1092 59.5625 62.0422 59.5625 62.7498L59.5625 68.6255L70.188 58L72 59.812L61.3745 70.4375L67.2502 70.4375C67.9578 70.4375 67.8908 71.0111 67.8908 71.7187C67.8908 72.4264 67.9578 73 67.2502 73Z" fill="#004D99"/>
<path fill-rule="evenodd" clip-rule="evenodd" d="M28.7498 25H37.7187C38.4264 25 39 25.5736 39 26.2813V35.2502C39 35.9578 38.4264 35.8908 37.7187 35.8908C37.0111 35.8908 36.4375 35.9578 36.4375 35.2502V29.3745L25.812 40L24 38.188L34.6255 27.5625H28.7498C28.0422 27.5625 28.1092 26.9889 28.1092 26.2813C28.1092 25.5736 28.0422 25 28.7498 25Z" fill="#004D99"/>
<path d="M50 46C50 46.2652 50.1054 46.5196 50.2929 46.7071C50.4804 46.8946 50.7348 47 51 47H77C77.2652 47 77.5196 46.8946 77.7071 46.7071C77.8946 46.5196 78 46.2652 78 46V33.875H50V46ZM54.125 37.375C54.125 37.2424 54.1777 37.1152 54.2714 37.0214C54.3652 36.9277 54.4924 36.875 54.625 36.875H60.375C60.5076 36.875 60.6348 36.9277 60.7286 37.0214C60.8223 37.1152 60.875 37.2424 60.875 37.375V41.375C60.875 41.5076 60.8223 41.6348 60.7286 41.7286C60.6348 41.8223 60.5076 41.875 60.375 41.875H54.625C54.4924 41.875 54.3652 41.8223 54.2714 41.7286C54.1777 41.6348 54.125 41.5076 54.125 41.375V37.375ZM77 25H51C50.7348 25 50.4804 25.1054 50.2929 25.2929C50.1054 25.4804 50 25.7348 50 26V30.125H78V26C78 25.7348 77.8946 25.4804 77.7071 25.2929C77.5196 25.1054 77.2652 25 77 25Z" fill="#004D99"/>
</svg>
