<svg width="245" height="152" viewBox="0 0 245 152" fill="none" xmlns="http://www.w3.org/2000/svg">
<g clip-path="url(#clip0_326_1983)">
<path d="M12 37.6C12 28.6392 12 24.1587 13.7439 20.7362C15.2779 17.7256 17.7256 15.2779 20.7362 13.7439C24.1587 12 28.6392 12 37.6 12H207.4C216.361 12 220.841 12 224.264 13.7439C227.274 15.2779 229.722 17.7256 231.256 20.7362C233 24.1587 233 28.6392 233 37.6V114.4C233 123.361 233 127.841 231.256 131.264C229.722 134.274 227.274 136.722 224.264 138.256C220.841 140 216.361 140 207.4 140H37.6C28.6392 140 24.1587 140 20.7362 138.256C17.7256 136.722 15.2779 134.274 13.7439 131.264C12 127.841 12 123.361 12 114.4V37.6Z" fill="#004D99"/>
<path d="M12 37.6C12 28.6392 12 24.1587 13.7439 20.7362C15.2779 17.7256 17.7256 15.2779 20.7362 13.7439C24.1587 12 28.6392 12 37.6 12H207.4C216.361 12 220.841 12 224.264 13.7439C227.274 15.2779 229.722 17.7256 231.256 20.7362C233 24.1587 233 28.6392 233 37.6V112.4C233 121.361 233 125.841 231.256 129.264C229.722 132.274 227.274 134.722 224.264 136.256C220.841 138 216.361 138 207.4 138H37.6C28.6392 138 24.1587 138 20.7362 136.256C17.7256 134.722 15.2779 132.274 13.7439 129.264C12 125.841 12 121.361 12 112.4V37.6Z" fill="white" fill-opacity="0.24"/>
<rect x="87" y="86.5134" width="101" height="77" rx="32" transform="rotate(-31.3279 87 86.5134)" fill="white" fill-opacity="0.06"/>
<path d="M105.519 37.9999H102.693V29.2726H105.608C106.463 29.2726 107.198 29.4474 107.811 29.7968C108.425 30.1434 108.895 30.642 109.222 31.2925C109.551 31.9403 109.716 32.7172 109.716 33.6235C109.716 34.5326 109.55 35.3138 109.218 35.9672C108.888 36.6207 108.411 37.1235 107.786 37.4758C107.161 37.8252 106.405 37.9999 105.519 37.9999ZM104.01 36.8493H105.446C106.111 36.8493 106.664 36.7243 107.104 36.4743C107.544 36.2215 107.874 35.8564 108.093 35.3792C108.311 34.8991 108.421 34.3138 108.421 33.6235C108.421 32.9388 108.311 32.3579 108.093 31.8806C107.877 31.4033 107.554 31.0411 107.125 30.7939C106.696 30.5468 106.164 30.4232 105.527 30.4232H104.01V36.8493Z" fill="white" fill-opacity="0.8"/>
<path d="M111.954 37.9999V29.2726H115.064C115.74 29.2726 116.302 29.3891 116.748 29.6221C117.196 29.855 117.532 30.1775 117.753 30.5894C117.975 30.9985 118.086 31.4715 118.086 32.0084C118.086 32.5425 117.973 33.0127 117.749 33.4189C117.527 33.8224 117.192 34.1363 116.743 34.3607C116.297 34.5851 115.736 34.6974 115.06 34.6974H112.704V33.5638H114.941C115.367 33.5638 115.713 33.5028 115.981 33.3806C116.25 33.2584 116.448 33.0809 116.573 32.8479C116.698 32.615 116.76 32.3351 116.76 32.0084C116.76 31.6789 116.696 31.3934 116.569 31.1519C116.444 30.9104 116.246 30.7258 115.976 30.5979C115.709 30.4672 115.358 30.4019 114.924 30.4019H113.27V37.9999H111.954ZM116.262 34.0624L118.418 37.9999H116.918L114.804 34.0624H116.262Z" fill="white" fill-opacity="0.8"/>
<path d="M121.605 29.2726V37.9999H120.288V29.2726H121.605Z" fill="white" fill-opacity="0.8"/>
<path d="M124.885 29.2726L127.314 36.3806H127.412L129.841 29.2726H131.264L128.124 37.9999H126.602L123.462 29.2726H124.885Z" fill="white" fill-opacity="0.8"/>
<path d="M133.125 37.9999V29.2726H138.596V30.4062H134.441V33.0653H138.311V34.1945H134.441V36.8664H138.647V37.9999H133.125Z" fill="white" fill-opacity="0.8"/>
<path d="M140.955 37.9999V29.2726H144.066C144.742 29.2726 145.303 29.3891 145.749 29.6221C146.198 29.855 146.533 30.1775 146.755 30.5894C146.976 30.9985 147.087 31.4715 147.087 32.0084C147.087 32.5425 146.975 33.0127 146.751 33.4189C146.529 33.8224 146.194 34.1363 145.745 34.3607C145.299 34.5851 144.738 34.6974 144.062 34.6974H141.705V33.5638H143.942C144.368 33.5638 144.715 33.5028 144.982 33.3806C145.252 33.2584 145.449 33.0809 145.574 32.8479C145.699 32.615 145.762 32.3351 145.762 32.0084C145.762 31.6789 145.698 31.3934 145.57 31.1519C145.445 30.9104 145.248 30.7258 144.978 30.5979C144.711 30.4672 144.36 30.4019 143.925 30.4019H142.272V37.9999H140.955ZM145.263 34.0624L147.42 37.9999H145.92L143.806 34.0624H145.263Z" fill="white" fill-opacity="0.8"/>
<path d="M150.282 29.2726V30.0908C150.282 30.3323 150.237 30.5866 150.146 30.8536C150.058 31.1178 149.933 31.3721 149.771 31.6164C149.609 31.8607 149.419 32.0709 149.2 32.2471L148.569 31.7954C148.737 31.551 148.882 31.2911 149.004 31.0155C149.129 30.74 149.191 30.436 149.191 30.1036V29.2726H150.282Z" fill="white" fill-opacity="0.8"/>
<path d="M157.04 31.5653C156.995 31.1618 156.807 30.8493 156.478 30.6278C156.148 30.4033 155.733 30.2911 155.233 30.2911C154.875 30.2911 154.566 30.3479 154.304 30.4616C154.043 30.5724 153.84 30.7258 153.695 30.9218C153.553 31.115 153.482 31.3351 153.482 31.5823C153.482 31.7897 153.53 31.9687 153.627 32.1192C153.726 32.2698 153.855 32.3962 154.014 32.4985C154.176 32.5979 154.35 32.6817 154.534 32.7499C154.719 32.8153 154.897 32.8692 155.067 32.9118L155.919 33.1334C156.198 33.2016 156.483 33.2939 156.776 33.4104C157.068 33.5269 157.34 33.6803 157.59 33.8707C157.84 34.061 158.041 34.2968 158.195 34.578C158.351 34.8593 158.429 35.1959 158.429 35.588C158.429 36.0823 158.301 36.5212 158.046 36.9047C157.793 37.2883 157.425 37.5908 156.942 37.8124C156.462 38.034 155.881 38.1448 155.199 38.1448C154.546 38.1448 153.98 38.0411 153.503 37.8337C153.026 37.6263 152.652 37.3323 152.382 36.9516C152.112 36.5681 151.963 36.1135 151.935 35.588H153.256C153.282 35.9033 153.384 36.1661 153.563 36.3763C153.745 36.5837 153.976 36.7385 154.257 36.8408C154.541 36.9403 154.853 36.99 155.191 36.99C155.563 36.99 155.894 36.9317 156.183 36.8153C156.476 36.6959 156.706 36.5312 156.874 36.3209C157.041 36.1079 157.125 35.8593 157.125 35.5752C157.125 35.3167 157.051 35.105 156.904 34.9403C156.759 34.7755 156.561 34.6391 156.311 34.5312C156.064 34.4232 155.784 34.328 155.472 34.2457L154.441 33.9644C153.742 33.7741 153.188 33.4942 152.779 33.1249C152.372 32.7556 152.169 32.267 152.169 31.659C152.169 31.1562 152.306 30.7172 152.578 30.3422C152.851 29.9672 153.22 29.676 153.686 29.4687C154.152 29.2584 154.678 29.1533 155.263 29.1533C155.854 29.1533 156.375 29.257 156.827 29.4644C157.282 29.6718 157.639 29.9573 157.901 30.3209C158.162 30.6817 158.299 31.0965 158.31 31.5653H157.04Z" fill="white" fill-opacity="0.8"/>
<path d="M164.379 37.9999V29.2726H165.695V36.8664H169.65V37.9999H164.379Z" fill="white" fill-opacity="0.8"/>
<path d="M173.069 29.2726V37.9999H171.752V29.2726H173.069Z" fill="white" fill-opacity="0.8"/>
<path d="M182.835 32.1107H181.505C181.454 31.8266 181.359 31.5766 181.22 31.3607C181.081 31.1448 180.91 30.9616 180.708 30.811C180.507 30.6604 180.281 30.5468 180.031 30.4701C179.784 30.3934 179.521 30.355 179.243 30.355C178.74 30.355 178.289 30.4814 177.892 30.7343C177.497 30.9871 177.184 31.3579 176.954 31.8465C176.727 32.3351 176.613 32.9317 176.613 33.6363C176.613 34.3465 176.727 34.9459 176.954 35.4346C177.184 35.9232 177.498 36.2925 177.896 36.5425C178.294 36.7925 178.741 36.9175 179.238 36.9175C179.514 36.9175 179.775 36.8806 180.022 36.8067C180.272 36.73 180.498 36.6178 180.7 36.4701C180.902 36.3224 181.072 36.142 181.211 35.9289C181.353 35.713 181.451 35.4658 181.505 35.1874L182.835 35.1917C182.764 35.6206 182.626 36.0155 182.422 36.3763C182.22 36.7343 181.96 37.0439 181.642 37.3053C181.326 37.5638 180.966 37.7641 180.559 37.9062C180.153 38.0482 179.71 38.1192 179.23 38.1192C178.474 38.1192 177.801 37.9403 177.21 37.5823C176.619 37.2215 176.153 36.7059 175.812 36.0354C175.474 35.365 175.305 34.5653 175.305 33.6363C175.305 32.7045 175.476 31.9047 175.816 31.2371C176.157 30.5667 176.623 30.0525 177.214 29.6945C177.805 29.3337 178.477 29.1533 179.23 29.1533C179.693 29.1533 180.125 29.2201 180.525 29.3536C180.929 29.4843 181.291 29.6775 181.612 29.9331C181.933 30.186 182.199 30.4956 182.409 30.8621C182.619 31.2258 182.761 31.642 182.835 32.1107Z" fill="white" fill-opacity="0.8"/>
<path d="M185.011 37.9999V29.2726H190.482V30.4062H186.327V33.0653H190.197V34.1945H186.327V36.8664H190.533V37.9999H185.011Z" fill="white" fill-opacity="0.8"/>
<path d="M199.885 29.2726V37.9999H198.675L194.239 31.5993H194.158V37.9999H192.841V29.2726H194.06L198.5 35.6817H198.581V29.2726H199.885Z" fill="white" fill-opacity="0.8"/>
<path d="M207.166 31.5653C207.12 31.1618 206.933 30.8493 206.603 30.6278C206.274 30.4033 205.859 30.2911 205.359 30.2911C205.001 30.2911 204.691 30.3479 204.43 30.4616C204.169 30.5724 203.966 30.7258 203.821 30.9218C203.679 31.115 203.608 31.3351 203.608 31.5823C203.608 31.7897 203.656 31.9687 203.752 32.1192C203.852 32.2698 203.981 32.3962 204.14 32.4985C204.302 32.5979 204.475 32.6817 204.66 32.7499C204.845 32.8153 205.022 32.8692 205.193 32.9118L206.045 33.1334C206.323 33.2016 206.609 33.2939 206.902 33.4104C207.194 33.5269 207.466 33.6803 207.716 33.8707C207.966 34.061 208.167 34.2968 208.321 34.578C208.477 34.8593 208.555 35.1959 208.555 35.588C208.555 36.0823 208.427 36.5212 208.171 36.9047C207.919 37.2883 207.551 37.5908 207.068 37.8124C206.588 38.034 206.007 38.1448 205.325 38.1448C204.671 38.1448 204.106 38.0411 203.629 37.8337C203.152 37.6263 202.778 37.3323 202.508 36.9516C202.238 36.5681 202.089 36.1135 202.061 35.588H203.382C203.407 35.9033 203.51 36.1661 203.689 36.3763C203.87 36.5837 204.102 36.7385 204.383 36.8408C204.667 36.9403 204.978 36.99 205.316 36.99C205.689 36.99 206.019 36.9317 206.309 36.8153C206.602 36.6959 206.832 36.5312 207 36.3209C207.167 36.1079 207.251 35.8593 207.251 35.5752C207.251 35.3167 207.177 35.105 207.029 34.9403C206.885 34.7755 206.687 34.6391 206.437 34.5312C206.19 34.4232 205.91 34.328 205.598 34.2457L204.566 33.9644C203.868 33.7741 203.314 33.4942 202.904 33.1249C202.498 32.7556 202.295 32.267 202.295 31.659C202.295 31.1562 202.431 30.7172 202.704 30.3422C202.977 29.9672 203.346 29.676 203.812 29.4687C204.278 29.2584 204.804 29.1533 205.389 29.1533C205.98 29.1533 206.501 29.257 206.953 29.4644C207.407 29.6718 207.765 29.9573 208.027 30.3209C208.288 30.6817 208.424 31.0965 208.436 31.5653H207.166Z" fill="white" fill-opacity="0.8"/>
<path d="M210.729 37.9999V29.2726H216.2V30.4062H212.045V33.0653H215.915V34.1945H212.045V36.8664H216.251V37.9999H210.729Z" fill="white" fill-opacity="0.8"/>
<rect x="121" y="59" width="96" height="10" rx="5" fill="white" fill-opacity="0.64"/>
<rect x="115" y="75" width="102" height="8" rx="4" fill="white" fill-opacity="0.36"/>
<rect x="152" y="96" width="65" height="6" rx="3" fill="white" fill-opacity="0.36"/>
<rect x="133" y="106" width="84" height="6" rx="3" fill="white" fill-opacity="0.36"/>
<rect x="133" y="116" width="84" height="6" rx="3" fill="white" fill-opacity="0.36"/>
<rect x="28" y="116" width="68" height="6" rx="3" fill="white" fill-opacity="0.36"/>
<rect x="28" y="106" width="37" height="6" rx="3" fill="white" fill-opacity="0.36"/>
<mask id="mask0_326_1983" style="mask-type:alpha" maskUnits="userSpaceOnUse" x="28" y="28" width="58" height="58">
<rect x="28" y="28" width="58" height="58" rx="8" fill="white"/>
</mask>
<g mask="url(#mask0_326_1983)">
<rect x="28" y="28" width="58" height="58" rx="8" fill="white"/>
<path d="M38 71C38 64.3726 43.3726 59 50 59H64C70.6274 59 76 64.3726 76 71V93H38V71Z" fill="#004D99"/>
<path d="M48 43C48 39.134 51.134 36 55 36H59C62.866 36 66 39.134 66 43V51C66 55.9706 61.9706 60 57 60C52.0294 60 48 55.9706 48 51V43Z" fill="#004D99" stroke="white" stroke-width="2"/>
</g>
<path d="M2 22V6C2 3.79086 3.79086 2 6 2H22" stroke="#004D99" stroke-width="3" stroke-linecap="round"/>
<path d="M223 2L239 2C241.209 2 243 3.79086 243 6L243 22" stroke="#004D99" stroke-width="3" stroke-linecap="round"/>
<path d="M243 130L243 146C243 148.209 241.209 150 239 150L223 150" stroke="#004D99" stroke-width="3" stroke-linecap="round"/>
<path d="M22 150L6 150C3.79086 150 2 148.209 2 146L2 130" stroke="#004D99" stroke-width="3" stroke-linecap="round"/>
</g>
<defs>
<clipPath id="clip0_326_1983">
<rect width="245" height="152" fill="white"/>
</clipPath>
</defs>
</svg>
