<svg width="245" height="152" viewBox="0 0 245 152" fill="none" xmlns="http://www.w3.org/2000/svg">
<path d="M12 37.6C12 28.6392 12 24.1587 13.7439 20.7362C15.2779 17.7256 17.7256 15.2779 20.7362 13.7439C24.1587 12 28.6392 12 37.6 12H207.4C216.361 12 220.841 12 224.264 13.7439C227.274 15.2779 229.722 17.7256 231.256 20.7362C233 24.1587 233 28.6392 233 37.6V114.4C233 123.361 233 127.841 231.256 131.264C229.722 134.274 227.274 136.722 224.264 138.256C220.841 140 216.361 140 207.4 140H37.6C28.6392 140 24.1587 140 20.7362 138.256C17.7256 136.722 15.2779 134.274 13.7439 131.264C12 127.841 12 123.361 12 114.4V37.6Z" fill="#004D99"/>
<path d="M12 37.6C12 28.6392 12 24.1587 13.7439 20.7362C15.2779 17.7256 17.7256 15.2779 20.7362 13.7439C24.1587 12 28.6392 12 37.6 12H207.4C216.361 12 220.841 12 224.264 13.7439C227.274 15.2779 229.722 17.7256 231.256 20.7362C233 24.1587 233 28.6392 233 37.6V112.4C233 121.361 233 125.841 231.256 129.264C229.722 132.274 227.274 134.722 224.264 136.256C220.841 138 216.361 138 207.4 138H37.6C28.6392 138 24.1587 138 20.7362 136.256C17.7256 134.722 15.2779 132.274 13.7439 129.264C12 125.841 12 121.361 12 112.4V37.6Z" fill="white" fill-opacity="0.24"/>
<rect x="59" y="45.4541" width="127.2" height="77" rx="32" transform="rotate(-5.37104 59 45.4541)" fill="white" fill-opacity="0.06"/>
<path d="M119.721 33.2726V41.9999H118.404V33.2726H119.721Z" fill="white" fill-opacity="0.8"/>
<path d="M125.063 41.9999H122.238V33.2726H125.153C126.008 33.2726 126.742 33.4474 127.356 33.7968C127.97 34.1434 128.44 34.642 128.767 35.2925C129.096 35.9403 129.261 36.7172 129.261 37.6235C129.261 38.5326 129.095 39.3138 128.762 39.9672C128.433 40.6207 127.956 41.1235 127.331 41.4758C126.706 41.8252 125.95 41.9999 125.063 41.9999ZM123.555 40.8493H124.991C125.656 40.8493 126.208 40.7243 126.649 40.4743C127.089 40.2215 127.419 39.8564 127.637 39.3792C127.856 38.8991 127.965 38.3138 127.965 37.6235C127.965 36.9388 127.856 36.3579 127.637 35.8806C127.421 35.4033 127.099 35.0411 126.67 34.7939C126.241 34.5468 125.708 34.4232 125.072 34.4232H123.555V40.8493Z" fill="white" fill-opacity="0.8"/>
<path d="M131.498 41.9999V33.2726H136.97V34.4062H132.815V37.0653H136.684V38.1945H132.815V40.8664H137.021V41.9999H131.498Z" fill="white" fill-opacity="0.8"/>
<path d="M146.373 33.2726V41.9999H145.163L140.727 35.5993H140.646V41.9999H139.329V33.2726H140.548L144.988 39.6817H145.069V33.2726H146.373Z" fill="white" fill-opacity="0.8"/>
<path d="M148.463 34.4062V33.2726H155.218V34.4062H152.495V41.9999H151.182V34.4062H148.463Z" fill="white" fill-opacity="0.8"/>
<path d="M158.627 33.2726V41.9999H157.31V33.2726H158.627Z" fill="white" fill-opacity="0.8"/>
<path d="M160.714 34.4062V33.2726H167.468V34.4062H164.745V41.9999H163.433V34.4062H160.714Z" fill="white" fill-opacity="0.8"/>
<path d="M168.888 33.2726H170.383L172.663 37.24H172.757L175.037 33.2726H176.532L173.366 38.5738V41.9999H172.054V38.5738L168.888 33.2726Z" fill="white" fill-opacity="0.8"/>
<path d="M189.4 36.1107H188.07C188.019 35.8266 187.924 35.5766 187.785 35.3607C187.646 35.1448 187.475 34.9616 187.274 34.811C187.072 34.6604 186.846 34.5468 186.596 34.4701C186.349 34.3934 186.086 34.355 185.808 34.355C185.305 34.355 184.855 34.4814 184.457 34.7343C184.062 34.9871 183.749 35.3579 183.519 35.8465C183.292 36.3351 183.178 36.9317 183.178 37.6363C183.178 38.3465 183.292 38.9459 183.519 39.4346C183.749 39.9232 184.063 40.2925 184.461 40.5425C184.859 40.7925 185.306 40.9175 185.803 40.9175C186.079 40.9175 186.34 40.8806 186.588 40.8067C186.838 40.73 187.063 40.6178 187.265 40.4701C187.467 40.3224 187.637 40.142 187.776 39.9289C187.919 39.713 188.017 39.4658 188.07 39.1874L189.4 39.1917C189.329 39.6206 189.191 40.0155 188.987 40.3763C188.785 40.7343 188.525 41.0439 188.207 41.3053C187.892 41.5638 187.531 41.7641 187.124 41.9062C186.718 42.0482 186.275 42.1192 185.795 42.1192C185.039 42.1192 184.366 41.9403 183.775 41.5823C183.184 41.2215 182.718 40.7059 182.377 40.0354C182.039 39.365 181.87 38.5653 181.87 37.6363C181.87 36.7045 182.041 35.9047 182.382 35.2371C182.722 34.5667 183.188 34.0525 183.779 33.6945C184.37 33.3337 185.042 33.1533 185.795 33.1533C186.258 33.1533 186.69 33.2201 187.09 33.3536C187.494 33.4843 187.856 33.6775 188.177 33.9331C188.498 34.186 188.764 34.4956 188.974 34.8621C189.184 35.2258 189.326 35.642 189.4 36.1107Z" fill="white" fill-opacity="0.8"/>
<path d="M192.254 41.9999H190.857L193.997 33.2726H195.519L198.659 41.9999H197.261L194.794 34.8579H194.726L192.254 41.9999ZM192.489 38.5823H197.023V39.6903H192.489V38.5823Z" fill="white" fill-opacity="0.8"/>
<path d="M200.519 41.9999V33.2726H203.63C204.306 33.2726 204.867 33.3891 205.313 33.6221C205.762 33.855 206.098 34.1775 206.319 34.5894C206.541 34.9985 206.652 35.4715 206.652 36.0084C206.652 36.5425 206.539 37.0127 206.315 37.4189C206.093 37.8224 205.758 38.1363 205.309 38.3607C204.863 38.5851 204.302 38.6974 203.626 38.6974H201.269V37.5638H203.507C203.933 37.5638 204.279 37.5028 204.546 37.3806C204.816 37.2584 205.014 37.0809 205.139 36.8479C205.264 36.615 205.326 36.3351 205.326 36.0084C205.326 35.6789 205.262 35.3934 205.134 35.1519C205.009 34.9104 204.812 34.7258 204.542 34.5979C204.275 34.4672 203.924 34.4019 203.49 34.4019H201.836V41.9999H200.519ZM204.828 38.0624L206.984 41.9999H205.484L203.37 38.0624H204.828Z" fill="white" fill-opacity="0.8"/>
<path d="M211.679 41.9999H208.854V33.2726H211.769C212.624 33.2726 213.358 33.4474 213.972 33.7968C214.585 34.1434 215.056 34.642 215.382 35.2925C215.712 35.9403 215.877 36.7172 215.877 37.6235C215.877 38.5326 215.71 39.3138 215.378 39.9672C215.048 40.6207 214.571 41.1235 213.946 41.4758C213.321 41.8252 212.565 41.9999 211.679 41.9999ZM210.171 40.8493H211.607C212.271 40.8493 212.824 40.7243 213.264 40.4743C213.705 40.2215 214.034 39.8564 214.253 39.3792C214.472 38.8991 214.581 38.3138 214.581 37.6235C214.581 36.9388 214.472 36.3579 214.253 35.8806C214.037 35.4033 213.715 35.0411 213.286 34.7939C212.857 34.5468 212.324 34.4232 211.688 34.4232H210.171V40.8493Z" fill="white" fill-opacity="0.8"/>
<rect x="121" y="59" width="96" height="10" rx="5" fill="white" fill-opacity="0.64"/>
<rect x="115" y="75" width="102" height="8" rx="4" fill="white" fill-opacity="0.36"/>
<rect x="115" y="89" width="102" height="8" rx="4" fill="white" fill-opacity="0.36"/>
<rect x="28" y="99" width="65" height="6" rx="3" fill="white" fill-opacity="0.36"/>
<rect x="28" y="109" width="84" height="6" rx="3" fill="white" fill-opacity="0.36"/>
<rect x="28" y="119" width="72" height="6" rx="3" fill="white" fill-opacity="0.36"/>
<mask id="mask0_326_2677" style="mask-type:alpha" maskUnits="userSpaceOnUse" x="28" y="28" width="58" height="58">
<rect x="28" y="28" width="58" height="58" rx="8" fill="white"/>
</mask>
<g mask="url(#mask0_326_2677)">
<rect x="28" y="28" width="58" height="58" rx="8" fill="white"/>
<path d="M38 71C38 64.3726 43.3726 59 50 59H64C70.6274 59 76 64.3726 76 71V93H38V71Z" fill="#004D99"/>
<path d="M48 43C48 39.134 51.134 36 55 36H59C62.866 36 66 39.134 66 43V51C66 55.9706 61.9706 60 57 60C52.0294 60 48 55.9706 48 51V43Z" fill="#004D99" stroke="white" stroke-width="2"/>
</g>
<path d="M2 22V6C2 3.79086 3.79086 2 6 2H22" stroke="#004D99" stroke-width="3" stroke-linecap="round"/>
<path d="M223 2L239 2C241.209 2 243 3.79086 243 6L243 22" stroke="#004D99" stroke-width="3" stroke-linecap="round"/>
<path d="M243 130L243 146C243 148.209 241.209 150 239 150L223 150" stroke="#004D99" stroke-width="3" stroke-linecap="round"/>
<path d="M22 150L6 150C3.79086 150 2 148.209 2 146L2 130" stroke="#004D99" stroke-width="3" stroke-linecap="round"/>
</svg>
