<svg width="245" height="152" viewBox="0 0 245 152" fill="none" xmlns="http://www.w3.org/2000/svg">
<path d="M12 37.6C12 28.6392 12 24.1587 13.7439 20.7362C15.2779 17.7256 17.7256 15.2779 20.7362 13.7439C24.1587 12 28.6392 12 37.6 12H207.4C216.361 12 220.841 12 224.264 13.7439C227.274 15.2779 229.722 17.7256 231.256 20.7362C233 24.1587 233 28.6392 233 37.6V114.4C233 123.361 233 127.841 231.256 131.264C229.722 134.274 227.274 136.722 224.264 138.256C220.841 140 216.361 140 207.4 140H37.6C28.6392 140 24.1587 140 20.7362 138.256C17.7256 136.722 15.2779 134.274 13.7439 131.264C12 127.841 12 123.361 12 114.4V37.6Z" fill="#004D99"/>
<path d="M12 37.6C12 28.6392 12 24.1587 13.7439 20.7362C15.2779 17.7256 17.7256 15.2779 20.7362 13.7439C24.1587 12 28.6392 12 37.6 12H207.4C216.361 12 220.841 12 224.264 13.7439C227.274 15.2779 229.722 17.7256 231.256 20.7362C233 24.1587 233 28.6392 233 37.6V112.4C233 121.361 233 125.841 231.256 129.264C229.722 132.274 227.274 134.722 224.264 136.256C220.841 138 216.361 138 207.4 138H37.6C28.6392 138 24.1587 138 20.7362 136.256C17.7256 134.722 15.2779 132.274 13.7439 129.264C12 125.841 12 121.361 12 112.4V37.6Z" fill="white" fill-opacity="0.24"/>
<rect x="65" y="83.8125" width="59.2623" height="65.7054" rx="29.6312" transform="rotate(-31.3279 65 83.8125)" fill="white" fill-opacity="0.06"/>
<path d="M154.775 38.0001V30.7274H157.368C157.931 30.7274 158.399 30.8244 158.77 31.0186C159.144 31.2127 159.424 31.4814 159.608 31.8247C159.793 32.1656 159.885 32.5597 159.885 33.0072C159.885 33.4523 159.792 33.8441 159.605 34.1826C159.42 34.5188 159.141 34.7804 158.767 34.9674C158.395 35.1544 157.928 35.248 157.364 35.248H155.4V34.3034H157.265C157.62 34.3034 157.909 34.2525 158.131 34.1507C158.356 34.0489 158.521 33.9009 158.625 33.7068C158.729 33.5126 158.781 33.2794 158.781 33.0072C158.781 32.7326 158.728 32.4946 158.621 32.2934C158.517 32.0922 158.353 31.9383 158.128 31.8318C157.905 31.7229 157.613 31.6684 157.251 31.6684H155.873V38.0001H154.775ZM158.366 34.7188L160.162 38.0001H158.912L157.151 34.7188H158.366Z" fill="white" fill-opacity="0.8"/>
<path d="M161.721 38.0001V30.7274H166.28V31.672H162.818V33.8879H166.042V34.8289H162.818V37.0555H166.323V38.0001H161.721Z" fill="white" fill-opacity="0.8"/>
<path d="M172.213 32.6379C172.175 32.3017 172.019 32.0413 171.744 31.8566C171.469 31.6696 171.124 31.5761 170.707 31.5761C170.409 31.5761 170.151 31.6234 169.933 31.7181C169.715 31.8105 169.546 31.9383 169.425 32.1017C169.307 32.2626 169.248 32.4461 169.248 32.6521C169.248 32.8249 169.288 32.974 169.368 33.0995C169.451 33.225 169.559 33.3303 169.691 33.4156C169.826 33.4984 169.971 33.5683 170.125 33.6251C170.279 33.6795 170.426 33.7245 170.569 33.76L171.279 33.9447C171.511 34.0015 171.749 34.0785 171.993 34.1755C172.236 34.2726 172.462 34.4004 172.671 34.559C172.879 34.7177 173.047 34.9142 173.175 35.1485C173.305 35.3829 173.37 35.6634 173.37 35.9901C173.37 36.4021 173.264 36.7678 173.051 37.0874C172.84 37.407 172.533 37.6592 172.131 37.8438C171.731 38.0285 171.247 38.1208 170.679 38.1208C170.134 38.1208 169.663 38.0344 169.265 37.8616C168.868 37.6888 168.556 37.4437 168.331 37.1265C168.106 36.8069 167.982 36.4281 167.958 35.9901H169.059C169.081 36.2529 169.166 36.4719 169.315 36.6471C169.467 36.8199 169.659 36.949 169.894 37.0342C170.131 37.117 170.39 37.1585 170.672 37.1585C170.982 37.1585 171.257 37.1099 171.499 37.0129C171.743 36.9134 171.935 36.7761 172.074 36.6009C172.214 36.4234 172.284 36.2162 172.284 35.9795C172.284 35.7641 172.222 35.5877 172.099 35.4504C171.978 35.3131 171.814 35.1994 171.605 35.1095C171.4 35.0195 171.166 34.9402 170.906 34.8715L170.047 34.6372C169.464 34.4785 169.002 34.2454 168.662 33.9376C168.323 33.6298 168.154 33.2226 168.154 32.716C168.154 32.297 168.267 31.9312 168.495 31.6187C168.722 31.3062 169.03 31.0635 169.418 30.8907C169.806 30.7155 170.244 30.6279 170.732 30.6279C171.224 30.6279 171.659 30.7143 172.035 30.8872C172.414 31.06 172.712 31.2979 172.93 31.6009C173.148 31.9016 173.261 32.2472 173.271 32.6379H172.213Z" fill="white" fill-opacity="0.8"/>
<path d="M175.182 38.0001V30.7274H179.741V31.672H176.279V33.8879H179.503V34.8289H176.279V37.0555H179.784V38.0001H175.182Z" fill="white" fill-opacity="0.8"/>
<path d="M184.061 38.0001H181.707V30.7274H184.136C184.849 30.7274 185.461 30.873 185.972 31.1642C186.483 31.453 186.875 31.8685 187.147 32.4106C187.422 32.9504 187.559 33.5979 187.559 34.3531C187.559 35.1106 187.421 35.7617 187.144 36.3062C186.869 36.8507 186.471 37.2697 185.951 37.5633C185.43 37.8545 184.8 38.0001 184.061 38.0001ZM182.804 37.0413H184.001C184.555 37.0413 185.016 36.9371 185.382 36.7288C185.749 36.5181 186.024 36.2139 186.206 35.8161C186.389 35.416 186.48 34.9284 186.48 34.3531C186.48 33.7825 186.389 33.2984 186.206 32.9007C186.026 32.5029 185.758 32.2011 185.4 31.9951C185.043 31.7892 184.599 31.6862 184.069 31.6862H182.804V37.0413Z" fill="white" fill-opacity="0.8"/>
<path d="M189.424 38.0001V30.7274H193.983V31.672H190.521V33.8879H193.746V34.8289H190.521V37.0555H194.026V38.0001H189.424Z" fill="white" fill-opacity="0.8"/>
<path d="M201.819 30.7274V38.0001H200.811L197.114 32.6663H197.047V38.0001H195.949V30.7274H196.965L200.665 36.0683H200.733V30.7274H201.819Z" fill="white" fill-opacity="0.8"/>
<path d="M209.96 33.0924H208.852C208.81 32.8557 208.731 32.6473 208.615 32.4674C208.499 32.2875 208.356 32.1348 208.188 32.0093C208.02 31.8838 207.832 31.7892 207.624 31.7252C207.418 31.6613 207.199 31.6294 206.967 31.6294C206.548 31.6294 206.173 31.7347 205.841 31.9454C205.512 32.1561 205.252 32.4651 205.06 32.8722C204.87 33.2794 204.776 33.7766 204.776 34.3637C204.776 34.9556 204.87 35.4551 205.06 35.8623C205.252 36.2695 205.513 36.5773 205.845 36.7856C206.176 36.9939 206.549 37.0981 206.963 37.0981C207.193 37.0981 207.411 37.0673 207.617 37.0058C207.825 36.9419 208.013 36.8483 208.181 36.7252C208.349 36.6021 208.491 36.4518 208.607 36.2742C208.726 36.0943 208.807 35.8883 208.852 35.6563L209.96 35.6599C209.901 36.0174 209.786 36.3464 209.616 36.6471C209.448 36.9454 209.231 37.2035 208.966 37.4213C208.703 37.6367 208.403 37.8036 208.064 37.922C207.726 38.0403 207.356 38.0995 206.956 38.0995C206.326 38.0995 205.765 37.9504 205.273 37.6521C204.78 37.3514 204.392 36.9217 204.108 36.363C203.826 35.8043 203.686 35.1379 203.686 34.3637C203.686 33.5872 203.828 32.9208 204.112 32.3644C204.396 31.8057 204.784 31.3772 205.276 31.0789C205.769 30.7783 206.329 30.6279 206.956 30.6279C207.342 30.6279 207.702 30.6836 208.036 30.7948C208.372 30.9037 208.674 31.0647 208.941 31.2778C209.209 31.4885 209.43 31.7465 209.605 32.0519C209.78 32.355 209.899 32.7018 209.96 33.0924Z" fill="white" fill-opacity="0.8"/>
<path d="M211.773 38.0001V30.7274H216.333V31.672H212.871V33.8879H216.095V34.8289H212.871V37.0555H216.376V38.0001H211.773Z" fill="white" fill-opacity="0.8"/>
<path d="M178.248 50.0001V42.7274H180.84C181.406 42.7274 181.875 42.8303 182.247 43.0363C182.618 43.2423 182.896 43.524 183.081 43.8815C183.266 44.2366 183.358 44.6367 183.358 45.0818C183.358 45.5292 183.265 45.9317 183.078 46.2892C182.893 46.6443 182.614 46.926 182.24 47.1343C181.868 47.3403 181.4 47.4433 180.837 47.4433H179.054V46.5129H180.737C181.095 46.5129 181.385 46.4513 181.607 46.3282C181.83 46.2027 181.993 46.0323 182.097 45.8169C182.202 45.6014 182.254 45.3564 182.254 45.0818C182.254 44.8071 182.202 44.5633 182.097 44.3502C181.993 44.1372 181.829 43.9703 181.604 43.8495C181.381 43.7288 181.088 43.6684 180.723 43.6684H179.345V50.0001H178.248Z" fill="white" fill-opacity="0.8"/>
<path d="M185.145 50.0001V42.7274H189.704V43.672H186.242V45.8879H189.466V46.8289H186.242V49.0555H189.747V50.0001H185.145Z" fill="white" fill-opacity="0.8"/>
<path d="M191.67 50.0001V42.7274H194.262C194.826 42.7274 195.293 42.8244 195.665 43.0186C196.039 43.2127 196.318 43.4814 196.503 43.8247C196.688 44.1656 196.78 44.5597 196.78 45.0072C196.78 45.4523 196.686 45.8441 196.499 46.1826C196.315 46.5188 196.035 46.7804 195.661 46.9674C195.29 47.1544 194.822 47.248 194.259 47.248H192.295V46.3034H194.159C194.514 46.3034 194.803 46.2525 195.026 46.1507C195.251 46.0489 195.415 45.9009 195.519 45.7068C195.624 45.5126 195.676 45.2794 195.676 45.0072C195.676 44.7326 195.622 44.4946 195.516 44.2934C195.412 44.0922 195.247 43.9383 195.022 43.8318C194.8 43.7229 194.507 43.6684 194.145 43.6684H192.767V50.0001H191.67ZM195.26 46.7188L197.057 50.0001H195.807L194.046 46.7188H195.26Z" fill="white" fill-opacity="0.8"/>
<path d="M198.615 42.7274H199.947L202.262 48.3808H202.347L204.663 42.7274H205.994V50.0001H204.95V44.7373H204.883L202.738 49.9894H201.872L199.727 44.7338H199.659V50.0001H198.615V42.7274Z" fill="white" fill-opacity="0.8"/>
<path d="M209.187 42.7274V50.0001H208.09V42.7274H209.187Z" fill="white" fill-opacity="0.8"/>
<path d="M210.926 43.672V42.7274H216.555V43.672H214.286V50.0001H213.192V43.672H210.926Z" fill="white" fill-opacity="0.8"/>
<rect x="28" y="28" width="96" height="10" rx="5" fill="white" fill-opacity="0.64"/>
<rect x="28" y="47" width="102" height="8" rx="4" fill="white" fill-opacity="0.36"/>
<rect x="28" y="68" width="65" height="6" rx="3" fill="white" fill-opacity="0.36"/>
<rect x="28" y="78" width="84" height="6" rx="3" fill="white" fill-opacity="0.36"/>
<rect x="28" y="88" width="126" height="6" rx="3" fill="white" fill-opacity="0.36"/>
<rect x="28" y="116" width="68" height="6" rx="3" fill="white" fill-opacity="0.36"/>
<rect x="28" y="106" width="88" height="6" rx="3" fill="white" fill-opacity="0.36"/>
<mask id="mask0_326_3142" style="mask-type:alpha" maskUnits="userSpaceOnUse" x="171" y="78" width="46" height="46">
<rect x="171" y="78" width="46" height="46" rx="6.34483" fill="white"/>
</mask>
<g mask="url(#mask0_326_3142)">
<rect x="171" y="78" width="46" height="46" rx="6.34483" fill="white"/>
<path d="M178.931 112.103C178.931 106.847 183.192 102.586 188.448 102.586H199.552C204.808 102.586 209.069 106.847 209.069 112.103V129.552H178.931V112.103Z" fill="#004D99"/>
<path d="M186.862 89.8966C186.862 86.8305 189.348 84.3449 192.414 84.3449H195.586C198.652 84.3449 201.138 86.8305 201.138 89.8966V96.2414C201.138 100.184 197.942 103.379 194 103.379C190.058 103.379 186.862 100.184 186.862 96.2414V89.8966Z" fill="#004D99" stroke="white" stroke-width="1.58621"/>
</g>
<path d="M2 22V6C2 3.79086 3.79086 2 6 2H22" stroke="#004D99" stroke-width="3" stroke-linecap="round"/>
<path d="M223 2L239 2C241.209 2 243 3.79086 243 6L243 22" stroke="#004D99" stroke-width="3" stroke-linecap="round"/>
<path d="M243 130L243 146C243 148.209 241.209 150 239 150L223 150" stroke="#004D99" stroke-width="3" stroke-linecap="round"/>
<path d="M22 150L6 150C3.79086 150 2 148.209 2 146L2 130" stroke="#004D99" stroke-width="3" stroke-linecap="round"/>
</svg>
