<svg width="100" height="100" viewBox="0 0 100 100" fill="none" xmlns="http://www.w3.org/2000/svg">
<circle cx="74.2099" cy="41.7985" r="3.5" transform="rotate(-91.6257 74.2099 41.7985)" stroke="#004D99" stroke-width="2"/>
<circle cx="61.0166" cy="35.17" r="5.5" transform="rotate(-91.6257 61.0166 35.17)" stroke="#004D99" stroke-width="2"/>
<circle cx="73.8128" cy="27.8041" r="4.5" transform="rotate(-91.6257 73.8128 27.8041)" fill="#004D99" stroke="#004D99" stroke-width="2"/>
<path d="M22.9643 53.9845H46.1373V50.931C46.1373 50.7933 46.1056 50.6572 46.0446 50.5327C45.9836 50.4082 45.8947 50.2983 45.7843 50.211C45.674 50.1237 45.5449 50.0611 45.4065 50.0277C45.268 49.9943 45.1237 49.9911 44.9837 50.0181L22.8052 53.5371C22.64 53.5688 22.4864 53.6418 22.3595 53.7487C22.2326 53.8555 22.1369 53.9926 22.082 54.1463C22.3629 54.0391 22.6622 53.9842 22.9643 53.9845ZM48.0357 55.381H22.9643C22.7085 55.381 22.4633 55.479 22.2824 55.6536C22.1016 55.8282 22 56.065 22 56.3119V73.069C22 73.316 22.1016 73.5527 22.2824 73.7273C22.4633 73.9019 22.7085 74 22.9643 74H48.0357C48.2915 74 48.5367 73.9019 48.7176 73.7273C48.8984 73.5527 49 73.316 49 73.069V56.3119C49 56.065 48.8984 55.8282 48.7176 55.6536C48.5367 55.479 48.2915 55.381 48.0357 55.381ZM42.2801 66.5524C41.8987 66.5524 41.5258 66.4432 41.2087 66.2386C40.8915 66.034 40.6443 65.7432 40.4984 65.403C40.3524 65.0628 40.3142 64.6884 40.3886 64.3272C40.463 63.9661 40.6467 63.6343 40.9164 63.3739C41.1861 63.1135 41.5298 62.9362 41.9039 62.8644C42.278 62.7925 42.6658 62.8294 43.0182 62.9703C43.3706 63.1112 43.6718 63.3499 43.8837 63.6561C44.0956 63.9623 44.2087 64.3222 44.2087 64.6905C44.2087 65.1843 44.0055 65.6579 43.6438 66.007C43.2822 66.3562 42.7916 66.5524 42.2801 66.5524Z" fill="#004D99"/>
<path d="M22 63V54.657C22 53.9401 22.3575 53.5826 22.9638 53.4942C25.1638 53.1727 29.75 53 29.75 53C29.75 53 29.2294 53.9302 28.0419 53.9302V55.3547C29.1981 55.3547 30 56.7209 30 56.7209L25.3438 61.6337L22 63Z" fill="#004D99"/>
<path fill-rule="evenodd" clip-rule="evenodd" d="M71.2502 71L62.2813 71C61.5736 71 61 70.4264 61 69.7187L61 60.7498C61 60.0422 61.5736 60.1092 62.2813 60.1092C62.9889 60.1092 63.5625 60.0422 63.5625 60.7498L63.5625 66.6255L74.188 56L76 57.812L65.3745 68.4375L71.2502 68.4375C71.9578 68.4375 71.8908 69.0111 71.8908 69.7187C71.8908 70.4264 71.9578 71 71.2502 71Z" fill="#004D99"/>
<path fill-rule="evenodd" clip-rule="evenodd" d="M34.7498 24H43.7187C44.4264 24 45 24.5736 45 25.2813V34.2502C45 34.9578 44.4264 34.8908 43.7187 34.8908C43.0111 34.8908 42.4375 34.9578 42.4375 34.2502V28.3745L31.812 39L30 37.188L40.6255 26.5625H34.7498C34.0422 26.5625 34.1092 25.9889 34.1092 25.2813C34.1092 24.5736 34.0422 24 34.7498 24Z" fill="#004D99"/>
</svg>
