<svg width="245" height="168" viewBox="0 0 245 168" fill="none" xmlns="http://www.w3.org/2000/svg">
<path d="M12 0H233V144.2C233 148.68 233 150.921 232.128 152.632C231.361 154.137 230.137 155.361 228.632 156.128C226.921 157 224.68 157 220.2 157H24.8C20.3196 157 18.0794 157 16.3681 156.128C14.8628 155.361 13.6389 154.137 12.8719 152.632C12 150.921 12 148.68 12 144.2V0Z" fill="#004D99"/>
<path d="M12 0H233V126.4C233 135.361 233 139.841 231.256 143.264C229.722 146.274 227.274 148.722 224.264 150.256C220.841 152 216.361 152 207.4 152H37.6C28.6392 152 24.1587 152 20.7362 150.256C17.7256 148.722 15.2779 146.274 13.7439 143.264C12 139.841 12 135.361 12 126.4V0Z" fill="white" fill-opacity="0.24"/>
<rect x="12" width="221" height="25" fill="white" fill-opacity="0.48"/>
<rect x="102" y="45" width="101" height="77" rx="32" fill="white" fill-opacity="0.06"/>
<path d="M29.4321 52.0002V41.8184H33.0614C33.8535 41.8184 34.5098 41.9626 35.0301 42.2509C35.5505 42.5393 35.9399 42.9337 36.1985 43.4342C36.457 43.9313 36.5862 44.4915 36.5862 45.1146C36.5862 45.741 36.4553 46.3044 36.1935 46.8049C35.935 47.3021 35.5439 47.6965 35.0202 47.9881C34.4998 48.2765 33.8452 48.4207 33.0564 48.4207H30.5607V47.1181H32.9172C33.4177 47.1181 33.8237 47.0319 34.1353 46.8596C34.4468 46.6839 34.6755 46.4453 34.8213 46.1437C34.9672 45.8421 35.0401 45.499 35.0401 45.1146C35.0401 44.7301 34.9672 44.3887 34.8213 44.0904C34.6755 43.7921 34.4451 43.5585 34.1303 43.3894C33.8187 43.2204 33.4077 43.1359 32.8973 43.1359H30.9684V52.0002H29.4321Z" fill="white" fill-opacity="0.8"/>
<path d="M38.8672 52.0002H37.2365L40.9006 41.8184H42.6755L46.3395 52.0002H44.7088L41.8303 43.6678H41.7507L38.8672 52.0002ZM39.1407 48.013H44.4304V49.3056H39.1407V48.013Z" fill="white" fill-opacity="0.8"/>
<path d="M53.9811 44.4931C53.9281 44.0225 53.7093 43.6579 53.3248 43.3994C52.9404 43.1375 52.4565 43.0066 51.8731 43.0066C51.4555 43.0066 51.0943 43.0729 50.7893 43.2055C50.4844 43.3347 50.2474 43.5137 50.0784 43.7424C49.9127 43.9678 49.8298 44.2247 49.8298 44.513C49.8298 44.755 49.8862 44.9638 49.9989 45.1394C50.1149 45.3151 50.2657 45.4626 50.4513 45.5819C50.6402 45.6979 50.8424 45.7957 51.0578 45.8752C51.2732 45.9515 51.4804 46.0144 51.6793 46.0641L52.6736 46.3227C52.9984 46.4022 53.3315 46.5099 53.6729 46.6458C54.0142 46.7817 54.3308 46.9607 54.6224 47.1828C54.9141 47.4048 55.1494 47.6799 55.3284 48.008C55.5107 48.3362 55.6018 48.7289 55.6018 49.1863C55.6018 49.763 55.4527 50.2751 55.1544 50.7225C54.8594 51.17 54.4302 51.5229 53.8668 51.7815C53.3066 52.04 52.6288 52.1693 51.8334 52.1693C51.0711 52.1693 50.4115 52.0483 49.8547 51.8063C49.2979 51.5644 48.862 51.2213 48.5471 50.7772C48.2323 50.3298 48.0583 49.7995 48.0251 49.1863H49.5663C49.5962 49.5542 49.7155 49.8608 49.9243 50.106C50.1364 50.348 50.4065 50.5286 50.7346 50.6479C51.0661 50.764 51.429 50.822 51.8234 50.822C52.2576 50.822 52.6437 50.754 52.9818 50.6181C53.3232 50.4789 53.5917 50.2867 53.7872 50.0414C53.9828 49.7928 54.0805 49.5028 54.0805 49.1714C54.0805 48.8698 53.9944 48.6229 53.822 48.4306C53.653 48.2384 53.4226 48.0793 53.131 47.9533C52.8426 47.8274 52.5161 47.7164 52.1516 47.6203L50.9484 47.2921C50.1331 47.0701 49.4868 46.7436 49.0095 46.3127C48.5355 45.8819 48.2986 45.3118 48.2986 44.6025C48.2986 44.0158 48.4577 43.5038 48.7758 43.0663C49.094 42.6288 49.5249 42.289 50.0685 42.0471C50.612 41.8018 51.2252 41.6792 51.9079 41.6792C52.5973 41.6792 53.2055 41.8002 53.7325 42.0421C54.2628 42.2841 54.6804 42.6172 54.9854 43.0414C55.2903 43.4623 55.4494 43.9462 55.4626 44.4931H53.9811Z" fill="white" fill-opacity="0.8"/>
<path d="M63.6909 44.4931C63.6378 44.0225 63.4191 43.6579 63.0346 43.3994C62.6502 43.1375 62.1662 43.0066 61.5829 43.0066C61.1653 43.0066 60.804 43.0729 60.4991 43.2055C60.1942 43.3347 59.9572 43.5137 59.7882 43.7424C59.6224 43.9678 59.5396 44.2247 59.5396 44.513C59.5396 44.755 59.5959 44.9638 59.7086 45.1394C59.8246 45.3151 59.9754 45.4626 60.161 45.5819C60.35 45.6979 60.5521 45.7957 60.7676 45.8752C60.983 45.9515 61.1902 46.0144 61.389 46.0641L62.3833 46.3227C62.7081 46.4022 63.0412 46.5099 63.3826 46.6458C63.724 46.7817 64.0405 46.9607 64.3322 47.1828C64.6239 47.4048 64.8592 47.6799 65.0382 48.008C65.2205 48.3362 65.3116 48.7289 65.3116 49.1863C65.3116 49.763 65.1625 50.2751 64.8642 50.7225C64.5692 51.17 64.14 51.5229 63.5765 51.7815C63.0164 52.04 62.3386 52.1693 61.5431 52.1693C60.7808 52.1693 60.1213 52.0483 59.5644 51.8063C59.0076 51.5644 58.5718 51.2213 58.2569 50.7772C57.942 50.3298 57.768 49.7995 57.7349 49.1863H59.2761C59.3059 49.5542 59.4252 49.8608 59.634 50.106C59.8462 50.348 60.1163 50.5286 60.4444 50.6479C60.7759 50.764 61.1388 50.822 61.5332 50.822C61.9674 50.822 62.3535 50.754 62.6916 50.6181C63.033 50.4789 63.3014 50.2867 63.497 50.0414C63.6925 49.7928 63.7903 49.5028 63.7903 49.1714C63.7903 48.8698 63.7041 48.6229 63.5318 48.4306C63.3627 48.2384 63.1324 48.0793 62.8407 47.9533C62.5524 47.8274 62.2259 47.7164 61.8613 47.6203L60.6582 47.2921C59.8429 47.0701 59.1965 46.7436 58.7193 46.3127C58.2453 45.8819 58.0083 45.3118 58.0083 44.6025C58.0083 44.0158 58.1674 43.5038 58.4856 43.0663C58.8038 42.6288 59.2347 42.289 59.7782 42.0471C60.3218 41.8018 60.9349 41.6792 61.6177 41.6792C62.3071 41.6792 62.9153 41.8002 63.4423 42.0421C63.9726 42.2841 64.3902 42.6172 64.6951 43.0414C65.0001 43.4623 65.1591 43.9462 65.1724 44.4931H63.6909Z" fill="white" fill-opacity="0.8"/>
<path d="M67.8474 52.0002V41.8184H71.4766C72.2688 41.8184 72.925 41.9626 73.4454 42.2509C73.9657 42.5393 74.3552 42.9337 74.6137 43.4342C74.8722 43.9313 75.0015 44.4915 75.0015 45.1146C75.0015 45.741 74.8706 46.3044 74.6087 46.8049C74.3502 47.3021 73.9591 47.6965 73.4354 47.9881C72.9151 48.2765 72.2605 48.4207 71.4717 48.4207H68.9759V47.1181H71.3325C71.8329 47.1181 72.2389 47.0319 72.5505 46.8596C72.862 46.6839 73.0907 46.4453 73.2366 46.1437C73.3824 45.8421 73.4553 45.499 73.4553 45.1146C73.4553 44.7301 73.3824 44.3887 73.2366 44.0904C73.0907 43.7921 72.8604 43.5585 72.5455 43.3894C72.234 43.2204 71.823 43.1359 71.3126 43.1359H69.3836V52.0002H67.8474Z" fill="white" fill-opacity="0.8"/>
<path d="M86.3469 46.9093C86.3469 47.9964 86.148 48.9311 85.7503 49.7133C85.3526 50.4922 84.8074 51.0921 84.1147 51.513C83.4253 51.9306 82.6414 52.1394 81.7631 52.1394C80.8815 52.1394 80.0943 51.9306 79.4016 51.513C78.7122 51.0921 78.1686 50.4905 77.7709 49.7083C77.3732 48.9261 77.1743 47.9931 77.1743 46.9093C77.1743 45.8222 77.3732 44.8892 77.7709 44.1103C78.1686 43.3281 78.7122 42.7282 79.4016 42.3106C80.0943 41.8897 80.8815 41.6792 81.7631 41.6792C82.6414 41.6792 83.4253 41.8897 84.1147 42.3106C84.8074 42.7282 85.3526 43.3281 85.7503 44.1103C86.148 44.8892 86.3469 45.8222 86.3469 46.9093ZM84.8256 46.9093C84.8256 46.0807 84.6914 45.383 84.4229 44.8163C84.1577 44.2462 83.7932 43.8153 83.3291 43.5237C82.8684 43.2287 82.3464 43.0812 81.7631 43.0812C81.1764 43.0812 80.6528 43.2287 80.1921 43.5237C79.7314 43.8153 79.3668 44.2462 79.0983 44.8163C78.8332 45.383 78.7006 46.0807 78.7006 46.9093C78.7006 47.7379 78.8332 48.4372 79.0983 49.0073C79.3668 49.5741 79.7314 50.005 80.1921 50.2999C80.6528 50.5916 81.1764 50.7374 81.7631 50.7374C82.3464 50.7374 82.8684 50.5916 83.3291 50.2999C83.7932 50.005 84.1577 49.5741 84.4229 49.0073C84.6914 48.4372 84.8256 47.7379 84.8256 46.9093Z" fill="white" fill-opacity="0.8"/>
<path d="M88.9622 52.0002V41.8184H92.5915C93.3803 41.8184 94.0349 41.9543 94.5552 42.2261C95.0789 42.4979 95.47 42.874 95.7285 43.3546C95.9871 43.8319 96.1163 44.3837 96.1163 45.0102C96.1163 45.6333 95.9854 46.1818 95.7236 46.6558C95.465 47.1264 95.0739 47.4926 94.5503 47.7545C94.0299 48.0163 93.3753 48.1472 92.5865 48.1472H89.8372V46.8248H92.4473C92.9445 46.8248 93.3488 46.7535 93.6604 46.611C93.9752 46.4685 94.2056 46.2613 94.3514 45.9896C94.4972 45.7178 94.5702 45.3913 94.5702 45.0102C94.5702 44.6257 94.4956 44.2926 94.3464 44.0109C94.2006 43.7292 93.9703 43.5137 93.6554 43.3646C93.3438 43.2121 92.9345 43.1359 92.4274 43.1359H90.4984V52.0002H88.9622ZM93.9885 47.4065L96.5041 52.0002H94.7541L92.2882 47.4065H93.9885Z" fill="white" fill-opacity="0.8"/>
<path d="M98.1835 43.1408V41.8184H106.063V43.1408H102.887V52.0002H101.355V43.1408H98.1835Z" fill="white" fill-opacity="0.8"/>
<rect x="28" y="73" width="96" height="10" rx="5" fill="white" fill-opacity="0.64"/>
<rect x="28" y="95" width="102" height="8" rx="4" fill="white" fill-opacity="0.36"/>
<rect x="28" y="109" width="65" height="8" rx="4" fill="white" fill-opacity="0.36"/>
<rect x="28" y="123" width="84" height="8" rx="4" fill="white" fill-opacity="0.36"/>
<mask id="mask0_326_1836" style="mask-type:alpha" maskUnits="userSpaceOnUse" x="159" y="73" width="58" height="58">
<rect x="159" y="73" width="58" height="58" rx="8" fill="white"/>
</mask>
<g mask="url(#mask0_326_1836)">
<rect x="159" y="73" width="58" height="58" rx="8" fill="white"/>
<path d="M169 116C169 109.373 174.373 104 181 104H195C201.627 104 207 109.373 207 116V138H169V116Z" fill="#004D99"/>
<path d="M179 88C179 84.134 182.134 81 186 81H190C193.866 81 197 84.134 197 88V96C197 100.971 192.971 105 188 105C183.029 105 179 100.971 179 96V88Z" fill="#004D99" stroke="white" stroke-width="2"/>
</g>
<path d="M2 38V22C2 19.7909 3.79086 18 6 18H22" stroke="#004D99" stroke-width="3" stroke-linecap="round"/>
<path d="M223 18L239 18C241.209 18 243 19.7909 243 22L243 38" stroke="#004D99" stroke-width="3" stroke-linecap="round"/>
<path d="M243 146L243 162C243 164.209 241.209 166 239 166L223 166" stroke="#004D99" stroke-width="3" stroke-linecap="round"/>
<path d="M22 166L6 166C3.79086 166 2 164.209 2 162L2 146" stroke="#004D99" stroke-width="3" stroke-linecap="round"/>
</svg>
