<svg width="100" height="100" viewBox="0 0 100 100" fill="none" xmlns="http://www.w3.org/2000/svg">
<g clip-path="url(#clip0_87_1436)">
<path d="M50.8656 25.2617C50.6092 25.091 50.308 25 50 25C49.692 25 49.3908 25.091 49.1344 25.2617L25.6969 40.8867C25.418 41.0727 25.2063 41.3434 25.093 41.659C24.9798 41.9745 24.9711 42.3181 25.0681 42.639C25.1651 42.9599 25.3628 43.241 25.6319 43.4409C25.901 43.6409 26.2273 43.7489 26.5625 43.7492H32.4219V65.6242H29.6875C29.2731 65.6242 28.8757 65.7888 28.5826 66.0818C28.2896 66.3749 28.125 66.7723 28.125 67.1867C28.125 67.6011 28.2896 67.9985 28.5826 68.2915C28.8757 68.5846 29.2731 68.7492 29.6875 68.7492H70.3125C70.7269 68.7492 71.1243 68.5846 71.4174 68.2915C71.7104 67.9985 71.875 67.6011 71.875 67.1867C71.875 66.7723 71.7104 66.3749 71.4174 66.0818C71.1243 65.7888 70.7269 65.6242 70.3125 65.6242H67.5781V43.7492H73.4375C73.7727 43.7489 74.099 43.6409 74.3681 43.4409C74.6372 43.241 74.8349 42.9599 74.9319 42.639C75.0289 42.3181 75.0202 41.9745 74.907 41.659C74.7937 41.3434 74.582 41.0727 74.3031 40.8867L50.8656 25.2617ZM63.6719 43.7492V65.6242H59.7656V43.7492H63.6719ZM55.8594 43.7492V65.6242H51.9531V43.7492H55.8594ZM48.0469 43.7492V65.6242H44.1406V43.7492H48.0469ZM40.2344 43.7492V65.6242H36.3281V43.7492H40.2344ZM50 37.4992C49.1712 37.4992 48.3763 37.17 47.7903 36.5839C47.2042 35.9979 46.875 35.203 46.875 34.3742C46.875 33.5454 47.2042 32.7505 47.7903 32.1645C48.3763 31.5784 49.1712 31.2492 50 31.2492C50.8288 31.2492 51.6237 31.5784 52.2097 32.1645C52.7958 32.7505 53.125 33.5454 53.125 34.3742C53.125 35.203 52.7958 35.9979 52.2097 36.5839C51.6237 37.17 50.8288 37.4992 50 37.4992ZM26.5625 71.8742C26.1481 71.8742 25.7507 72.0388 25.4576 72.3318C25.1646 72.6249 25 73.0223 25 73.4367C25 73.8511 25.1646 74.2485 25.4576 74.5415C25.7507 74.8346 26.1481 74.9992 26.5625 74.9992H73.4375C73.8519 74.9992 74.2493 74.8346 74.5424 74.5415C74.8354 74.2485 75 73.8511 75 73.4367C75 73.0223 74.8354 72.6249 74.5424 72.3318C74.2493 72.0388 73.8519 71.8742 73.4375 71.8742H26.5625Z" fill="#004D99"/>
</g>
<defs>
<clipPath id="clip0_87_1436">
<rect width="50" height="50" fill="white" transform="translate(25 25)"/>
</clipPath>
</defs>
</svg>
