<svg width="32" height="20" viewBox="0 0 32 20" fill="none" xmlns="http://www.w3.org/2000/svg">
<path d="M28.5 0.5H3.5C2.39543 0.5 1.5 1.39543 1.5 2.5V17.5C1.5 18.6046 2.39543 19.5 3.5 19.5H28.5C29.6046 19.5 30.5 18.6046 30.5 17.5V2.5C30.5 1.39543 29.6046 0.5 28.5 0.5Z" fill="white" stroke="#06247C"/>
<path fill-rule="evenodd" clip-rule="evenodd" d="M28.0016 15.3702C28.0016 17.3747 26.33 19 24.268 19H4V4.65371C4 2.64912 5.67162 1.024 7.73378 1.024H28.0016V15.3702Z" fill="#FFFFFE"/>
<path fill-rule="evenodd" clip-rule="evenodd" d="M22.7568 2.23395H26.6682V15.1973C26.6682 16.6291 25.4742 17.79 24.0014 17.79H20.0898V12.5046H24.2259C25.1953 12.5046 25.9226 11.9973 25.9226 11.2081C25.9226 10.4785 25.26 10.0155 24.3946 9.95712V9.92793C25.178 9.81598 25.6085 9.319 25.6085 8.737C25.6085 7.99681 24.9786 7.57029 24.1247 7.52866C24.0579 7.52529 23.9509 7.51937 23.8634 7.51937H20.0898V4.82646C20.0898 3.39473 21.284 2.23395 22.7568 2.23395ZM21.3935 11.6948V10.3274H22.9372C22.9857 10.3274 23.0775 10.335 23.1213 10.3443C23.4176 10.4066 23.6644 10.663 23.6644 11.0115C23.6644 11.3599 23.4176 11.6157 23.1213 11.678C23.0775 11.6873 22.9857 11.6948 22.9372 11.6948H21.3935ZM23.4815 8.92454C23.4815 9.26676 23.2348 9.49622 22.9446 9.54393C22.9175 9.54846 22.8436 9.55556 22.7927 9.55556H21.3935V8.29329H22.7927C22.8436 8.29329 22.9175 8.30017 22.9446 8.30471C23.2348 8.35242 23.4815 8.58203 23.4815 8.92454Z" fill="#06247C"/>
<path fill-rule="evenodd" clip-rule="evenodd" d="M15.3786 2.23395C13.9057 2.23395 12.7118 3.39473 12.7118 4.82646V8.22078C13.3875 7.65722 14.556 7.3052 16.4545 7.38824C17.4707 7.43229 18.5483 7.69724 18.5483 7.69724V8.79502C18.009 8.52927 17.3621 8.28312 16.5287 8.22173C15.088 8.11593 14.2209 8.80044 14.2209 10.0121C14.2209 11.2236 15.088 11.9079 16.5287 11.8016C17.3621 11.7408 18.0175 11.4881 18.5483 11.2291V12.3262C18.5483 12.3262 17.4707 12.5911 16.4545 12.636C14.556 12.719 13.3875 12.367 12.7118 11.8034V17.79H16.6232C18.0959 17.79 19.2899 16.6291 19.2899 15.1973V2.23395H15.3786Z" fill="#06247C"/>
<path fill-rule="evenodd" clip-rule="evenodd" d="M8.00039 2.23395C6.52747 2.23395 5.33356 3.39473 5.33356 4.82646V11.2293C6.08146 11.5815 6.85419 11.811 7.64063 11.811C8.56269 11.811 9.06929 11.2638 9.06929 10.5275V7.51944H11.3629V10.5275C11.3629 11.704 10.62 12.6476 8.07091 12.6476C6.53673 12.6476 5.33356 12.326 5.33356 12.326V17.79H9.24496C10.7177 17.79 11.9118 16.6291 11.9118 15.1973V2.23395H8.00039Z" fill="#06247C"/>
</svg>
