<svg width="14" height="14" viewBox="0 0 14 14" fill="none" xmlns="http://www.w3.org/2000/svg">
<path d="M13.0318 6.20853L13.0274 6.20661L1.34941 1.36294C1.25119 1.32183 1.14431 1.30571 1.03833 1.31601C0.932345 1.32632 0.830572 1.36274 0.74211 1.422C0.648647 1.48325 0.571876 1.56676 0.518704 1.66504C0.465532 1.76332 0.437627 1.87327 0.4375 1.98501V5.08279C0.437552 5.23554 0.490891 5.38349 0.588324 5.50114C0.685757 5.61879 0.821179 5.69876 0.97125 5.72728L7.34043 6.90497C7.36546 6.90972 7.38804 6.92305 7.40429 6.94267C7.42054 6.96229 7.42943 6.98696 7.42943 7.01244C7.42943 7.03791 7.42054 7.06258 7.40429 7.0822C7.38804 7.10182 7.36546 7.11515 7.34043 7.1199L0.971524 8.29759C0.821495 8.32603 0.68608 8.4059 0.588604 8.52344C0.491127 8.64098 0.437691 8.78884 0.4375 8.94154V12.0399C0.437428 12.1466 0.463847 12.2516 0.514387 12.3456C0.564928 12.4395 0.638008 12.5195 0.72707 12.5783C0.834203 12.6494 0.959931 12.6875 1.08855 12.6876C1.17797 12.6876 1.26648 12.6696 1.34887 12.6349L13.0266 7.8188L13.0318 7.81634C13.1889 7.74879 13.3229 7.63663 13.417 7.49375C13.5111 7.35087 13.5613 7.18353 13.5613 7.01244C13.5613 6.84134 13.5111 6.674 13.417 6.53112C13.3229 6.38824 13.1889 6.27608 13.0318 6.20853V6.20853Z" fill="white"/>
</svg>
