<svg width="32" height="20" viewBox="0 0 32 20" fill="none" xmlns="http://www.w3.org/2000/svg">
<path d="M29 0H3C1.89543 0 1 0.89543 1 2V18C1 19.1046 1.89543 20 3 20H29C30.1046 20 31 19.1046 31 18V2C31 0.89543 30.1046 0 29 0Z" fill="black"/>
<path d="M11.4318 18.2318V17.1103C11.445 16.92 11.3757 16.7332 11.2415 16.5976C11.1073 16.462 10.9213 16.3907 10.7308 16.4019C10.4792 16.3854 10.2386 16.5071 10.1028 16.7196C9.97903 16.5135 9.75239 16.3915 9.51216 16.4019C9.30298 16.3913 9.10385 16.4923 8.98879 16.6673V16.4467H8.60001V18.2318H8.99253V17.2374C8.97492 17.1135 9.01387 16.9883 9.09864 16.8963C9.18341 16.8043 9.30502 16.7552 9.42991 16.7626C9.68786 16.7626 9.8187 16.9308 9.8187 17.2336V18.2262H10.2112V17.2374C10.195 17.1138 10.2344 16.9894 10.3189 16.8977C10.4034 16.8061 10.5241 16.7566 10.6486 16.7626C10.914 16.7626 11.0411 16.9308 11.0411 17.2336V18.2262L11.4318 18.2318ZM13.6187 17.3402V16.4486H13.2262V16.6654C13.0924 16.4928 12.8836 16.3954 12.6654 16.4037C12.1493 16.4037 11.7308 16.8222 11.7308 17.3383C11.7308 17.8545 12.1493 18.2729 12.6654 18.2729C12.8836 18.2813 13.0924 18.1838 13.2262 18.0112V18.228H13.615L13.6187 17.3402ZM12.1738 17.3402C12.1911 17.0469 12.4397 16.8211 12.7334 16.8322C13.027 16.8432 13.258 17.0869 13.2532 17.3807C13.2485 17.6745 13.0097 17.9106 12.7159 17.9121C12.5655 17.9157 12.4205 17.8556 12.3166 17.7468C12.2127 17.6379 12.1595 17.4903 12.1701 17.3402H12.1738ZM21.9252 16.4056C22.0532 16.4053 22.1801 16.4294 22.2991 16.4766C22.4148 16.522 22.5203 16.59 22.6094 16.6766C22.6958 16.7612 22.7645 16.8623 22.8112 16.9738C22.9089 17.2135 22.9089 17.4818 22.8112 17.7215C22.7645 17.8331 22.6959 17.9342 22.6094 18.0187C22.5217 18.104 22.4182 18.1714 22.3047 18.2168C22.0582 18.3126 21.7848 18.3126 21.5383 18.2168C21.4253 18.1714 21.3224 18.1041 21.2355 18.0187C21.1499 17.9338 21.0819 17.8328 21.0355 17.7215C20.9381 17.4818 20.9381 17.2135 21.0355 16.9738C21.0819 16.8625 21.1499 16.7615 21.2355 16.6766C21.3224 16.5913 21.4253 16.5239 21.5383 16.4785C21.6598 16.4282 21.79 16.4021 21.9215 16.4019L21.9252 16.4056ZM21.9252 16.7794C21.8491 16.7784 21.7735 16.7924 21.7028 16.8206C21.6362 16.8473 21.5758 16.8873 21.5252 16.9383C21.4737 16.992 21.4336 17.0556 21.4075 17.1252C21.3504 17.2745 21.3504 17.4395 21.4075 17.5888C21.4336 17.6585 21.4737 17.7221 21.5252 17.7757C21.5757 17.8267 21.6362 17.8668 21.7028 17.8935C21.8452 17.9492 22.0034 17.9492 22.1458 17.8935C22.2156 17.8676 22.2793 17.8275 22.3327 17.7757C22.3844 17.7222 22.4245 17.6585 22.4505 17.5888C22.5076 17.4395 22.5076 17.2745 22.4505 17.1252C22.4245 17.0555 22.3844 16.9919 22.3327 16.9383C22.2793 16.8865 22.2156 16.8464 22.1458 16.8206C22.0753 16.7883 21.999 16.7705 21.9215 16.7682L21.9252 16.7794ZM15.7308 17.3402C15.7308 16.7794 15.3832 16.4056 14.8841 16.4056C14.368 16.4128 13.9554 16.8371 13.9626 17.3533C13.9698 17.8694 14.3941 18.282 14.9103 18.2748C15.1764 18.2839 15.4365 18.1947 15.6411 18.0243L15.4542 17.7364C15.3066 17.8548 15.1238 17.9206 14.9346 17.9234C14.6674 17.9463 14.4304 17.7525 14.4 17.486H15.7252C15.7308 17.4411 15.7308 17.3925 15.7308 17.3402ZM14.4019 17.1832C14.416 16.9336 14.6268 16.741 14.8766 16.7495C14.9941 16.747 15.1078 16.7913 15.1926 16.8726C15.2775 16.954 15.3265 17.0657 15.329 17.1832H14.4019ZM17.3664 16.9028C17.1957 16.8045 17.0026 16.7517 16.8056 16.7495C16.5925 16.7495 16.4654 16.828 16.4654 16.9589C16.4654 17.0897 16.6 17.1121 16.7682 17.1346L16.9551 17.1607C17.3439 17.2168 17.5794 17.3813 17.5794 17.6953C17.5794 18.0093 17.2804 18.2785 16.7664 18.2785C16.4909 18.2858 16.2203 18.2046 15.9944 18.0467L16.1813 17.7439C16.3528 17.8712 16.5622 17.937 16.7757 17.9308C17.0411 17.9308 17.1832 17.8523 17.1832 17.714C17.1832 17.6131 17.0822 17.557 16.8692 17.5271L16.6822 17.5009C16.2822 17.4449 16.0654 17.2654 16.0654 16.9738C16.0654 16.6187 16.357 16.4019 16.8131 16.4019C17.0683 16.3933 17.3207 16.4582 17.5402 16.5888L17.3664 16.9028ZM19.2355 16.8019H18.6019V17.6112C18.6019 17.7981 18.6654 17.9103 18.8598 17.9103C18.9812 17.9063 19.0995 17.8715 19.2037 17.8093L19.3159 18.1421C19.1702 18.233 19.0017 18.281 18.8299 18.2804C18.3701 18.2804 18.2094 18.0336 18.2094 17.6187V16.8056H17.8467V16.4505H18.2094V15.9084H18.6019V16.4505H19.2355V16.8019ZM20.5794 16.4019C20.6738 16.4022 20.7673 16.4186 20.8561 16.4505L20.7365 16.8243C20.6592 16.7935 20.5766 16.7783 20.4935 16.7794C20.2393 16.7794 20.1196 16.9439 20.1196 17.2393V18.2393H19.7308V16.4542H20.1159V16.671C20.2131 16.5041 20.3938 16.4037 20.5869 16.4093L20.5794 16.4019ZM23.2673 17.9701C23.2916 17.9698 23.3157 17.9742 23.3383 17.9832C23.3598 17.9919 23.3794 18.0046 23.3963 18.0206C23.4127 18.0367 23.426 18.0557 23.4355 18.0766C23.4547 18.1208 23.4547 18.1708 23.4355 18.215C23.426 18.2359 23.4127 18.2549 23.3963 18.271C23.3794 18.287 23.3598 18.2997 23.3383 18.3084C23.3159 18.3183 23.2918 18.3234 23.2673 18.3234C23.195 18.3228 23.1294 18.2806 23.0991 18.215C23.0802 18.1708 23.0802 18.1208 23.0991 18.0766C23.1086 18.0557 23.1219 18.0367 23.1383 18.0206C23.1552 18.0046 23.1748 17.9919 23.1963 17.9832C23.2161 17.976 23.2369 17.9722 23.2579 17.972L23.2673 17.9701ZM23.2673 18.286C23.286 18.2861 23.3044 18.2823 23.3215 18.2748C23.3376 18.2676 23.3522 18.2574 23.3645 18.2449C23.3967 18.2124 23.4108 18.1662 23.4022 18.1214C23.3936 18.0765 23.3634 18.0388 23.3215 18.0206C23.3044 18.0131 23.2859 18.0093 23.2673 18.0093C23.2487 18.0094 23.2302 18.0133 23.2131 18.0206C23.1963 18.0274 23.181 18.0376 23.1682 18.0505C23.1198 18.1033 23.1198 18.1845 23.1682 18.2374C23.1944 18.2639 23.2301 18.2787 23.2673 18.2785V18.286ZM23.2785 18.0636C23.296 18.0627 23.3132 18.068 23.3271 18.0785C23.3387 18.0881 23.345 18.1027 23.3439 18.1178C23.3445 18.1303 23.3397 18.1425 23.3308 18.1514C23.32 18.1612 23.3062 18.1672 23.2916 18.1682L23.3458 18.2299H23.3028L23.2523 18.1682H23.2355V18.2299H23.2V18.0654L23.2785 18.0636ZM23.2374 18.0953V18.1402H23.2785C23.2858 18.1424 23.2936 18.1424 23.3009 18.1402C23.3036 18.1349 23.3036 18.1287 23.3009 18.1234C23.3036 18.1181 23.3036 18.1118 23.3009 18.1065C23.2936 18.1044 23.2858 18.1044 23.2785 18.1065L23.2374 18.0953Z" fill="white"/>
<path d="M12.7869 2.82991H18.6748V13.4112H12.7869V2.82991Z" fill="#7673C0"/>
<path d="M13.1608 8.11963C13.1591 6.05514 14.1069 4.10456 15.7309 2.82991C12.9719 0.661692 9.01002 0.977511 6.62943 3.55541C4.24885 6.13332 4.24885 10.1078 6.62943 12.6857C9.01002 15.2636 12.9719 15.5794 15.7309 13.4112C14.1063 12.1362 13.1586 10.1848 13.1608 8.11963Z" fill="#EB001B"/>
<path d="M25.9757 12.5245V12.1131H26.0636V12.028H25.8412V12.1131H25.929V12.5245H25.9757ZM26.4075 12.5245V12.028H26.3402L26.2617 12.3826L26.1832 12.028H26.1159V12.5245H26.1645V12.1522L26.2374 12.4748H26.2879L26.3608 12.1522V12.528L26.4075 12.5245Z" fill="#00A1DF"/>
<path d="M26.6187 8.11963C26.6187 10.696 25.1476 13.0461 22.8303 14.1719C20.5129 15.2978 17.7562 15.0017 15.7309 13.4093C17.3542 12.1336 18.3019 10.1833 18.3019 8.11869C18.3019 6.05409 17.3542 4.10377 15.7309 2.82804C17.7562 1.23572 20.5129 0.9396 22.8303 2.06544C25.1476 3.19128 26.6187 5.54142 26.6187 8.11776V8.11963Z" fill="#00A1DF"/>
</svg>
