<svg width="32" height="20" viewBox="0 0 32 20" fill="none" xmlns="http://www.w3.org/2000/svg">
<path d="M28.5 0.5H3.5C2.39543 0.5 1.5 1.39543 1.5 2.5V17.5C1.5 18.6046 2.39543 19.5 3.5 19.5H28.5C29.6046 19.5 30.5 18.6046 30.5 17.5V2.5C30.5 1.39543 29.6046 0.5 28.5 0.5Z" fill="white" stroke="#A1B2C1"/>
<path d="M27.4953 2.04021L21.4167 2.03863H21.4151C21.4104 2.03863 21.4058 2.03947 21.4012 2.03947C20.5661 2.06526 19.5261 2.74042 19.3367 3.57295L16.462 16.395C16.2726 17.2353 16.7879 17.9191 17.6169 17.9317H24.0028C24.8192 17.891 25.6125 17.2236 25.7986 16.4005L28.6734 3.57832C28.8659 2.72947 28.3381 2.04021 27.4953 2.04021Z" fill="#01798A"/>
<path d="M16.462 16.395L19.3366 3.57295C19.5261 2.74042 20.5661 2.06526 21.4012 2.03947L18.9843 2.0379L14.6299 2.03705C13.7925 2.05432 12.7389 2.73421 12.5495 3.57295L9.67405 16.395C9.48393 17.2353 10 17.9191 10.8285 17.9317H17.6169C16.7879 17.9191 16.2726 17.2353 16.462 16.395Z" fill="#024381"/>
<path d="M9.67406 16.395L12.5496 3.57295C12.7389 2.73421 13.7925 2.05432 14.6299 2.03705L9.05161 2.03558C8.20954 2.03558 7.1299 2.72326 6.93746 3.57295L4.06196 16.395C4.04446 16.4733 4.03475 16.55 4.02896 16.625V16.8629C4.08525 17.4754 4.54932 17.9215 5.2164 17.9317H10.8285C10 17.9191 9.48394 17.2353 9.67406 16.395Z" fill="#DD0228"/>
<path d="M14.7475 11.3801H14.853C14.9501 11.3801 15.0153 11.3472 15.0459 11.2823L15.3202 10.8684H16.0548L15.9017 11.1406H16.7825L16.6707 11.5577H15.6226C15.5019 11.7407 15.3533 11.8268 15.1747 11.8166H14.6287L14.7475 11.3801H14.7475ZM14.6269 11.9778H16.5566L16.4336 12.4308H15.6575L15.5391 12.8681H16.2943L16.1713 13.3211H15.4161L15.2407 13.9673C15.1972 14.0753 15.2543 14.1239 15.4111 14.1129H16.0265L15.9125 14.5338H14.7309C14.5069 14.5338 14.4301 14.4047 14.5003 14.1458L14.7246 13.3211H14.2419L14.3645 12.8681H14.8473L14.9656 12.4308H14.5042L14.6269 11.9778ZM17.7069 10.8653L17.6765 11.1305C17.6765 11.1305 18.0405 10.8551 18.3711 10.8551H19.5928L19.1256 12.5598C19.0869 12.7547 18.9207 12.8516 18.6273 12.8516H17.2427L16.9183 14.0487C16.8996 14.1129 16.926 14.1458 16.9959 14.1458H17.2683L17.1682 14.5173H16.4756C16.2097 14.5173 16.0991 14.4368 16.143 14.2749L17.0595 10.8653H17.7069H17.7069H17.7069ZM18.7414 11.3472H17.6511L17.5206 11.8072C17.5206 11.8072 17.7022 11.6751 18.0057 11.6704C18.3083 11.6656 18.6537 11.6704 18.6537 11.6704L18.7414 11.3472ZM18.3464 12.4143C18.427 12.4254 18.4721 12.3932 18.4776 12.3173L18.5443 12.0748H17.4522L17.3607 12.4143H18.3464ZM17.6098 12.9651H18.2393L18.2276 13.2397H18.3952C18.4799 13.2397 18.5218 13.2124 18.5218 13.1584L18.5714 12.9808H19.0946L19.0247 13.2397C18.9656 13.4557 18.809 13.5683 18.5544 13.5794H18.2191L18.2175 14.0487C18.2114 14.1239 18.2788 14.1622 18.4177 14.1622H18.7329L18.6312 14.5338H17.8752C17.6634 14.544 17.5595 14.4422 17.5617 14.2264L17.6098 12.9651Z" fill="white"/>
<path d="M9.98219 8.59409C9.89681 9.01579 9.6989 9.33969 9.39191 9.5697C9.0877 9.79581 8.69533 9.90921 8.21496 9.90921C7.76288 9.90921 7.43146 9.79342 7.21996 9.56106C7.07328 9.39597 7.00031 9.18631 7.00031 8.93281C7.00031 8.828 7.01275 8.71534 7.03759 8.59409L7.54942 6.10621H8.32244L7.81758 8.56592C7.80204 8.634 7.79584 8.69737 7.79665 8.75448C7.79584 8.88047 7.82687 8.98372 7.88973 9.06426C7.98131 9.184 8.12995 9.24342 8.33679 9.24342C8.57464 9.24342 8.77063 9.18479 8.92275 9.06661C9.07489 8.94926 9.17422 8.78265 9.21884 8.56592L9.72529 6.10621H10.4944L9.98219 8.59409Z" fill="white"/>
<path d="M13.2286 7.61534H13.834L13.3598 9.8357H12.7556L13.2286 7.61534ZM13.4192 6.80642H14.03L13.9159 7.34537H13.3051L13.4192 6.80642Z" fill="white"/>
<path d="M14.3699 9.66669C14.2116 9.51415 14.1316 9.30839 14.1309 9.04708C14.1309 9.00246 14.1336 8.95164 14.1394 8.89605C14.1453 8.83972 14.1526 8.78495 14.1631 8.73413C14.2349 8.37347 14.3878 8.08713 14.6233 7.87586C14.8585 7.66385 15.1422 7.55744 15.4744 7.55744C15.7464 7.55744 15.9621 7.63413 16.1201 7.78746C16.278 7.94161 16.3572 8.14967 16.3572 8.41419C16.3572 8.45949 16.3537 8.51193 16.3479 8.56825C16.3409 8.62537 16.3324 8.68014 16.3226 8.73413C16.2524 9.08931 16.1 9.37254 15.8644 9.5799C15.6288 9.78878 15.3459 9.89276 15.016 9.89276C14.7429 9.89276 14.5279 9.81768 14.3699 9.66669ZM15.5236 9.22701C15.6304 9.11044 15.7068 8.93359 15.7534 8.69815C15.7604 8.66139 15.7665 8.62303 15.7704 8.58471C15.7743 8.54713 15.7758 8.51193 15.7758 8.47985C15.7758 8.34293 15.7413 8.23656 15.6718 8.16143C15.6028 8.08553 15.5046 8.04802 15.3778 8.04802C15.2101 8.04802 15.0735 8.1074 14.9664 8.22636C14.8585 8.34532 14.782 8.52524 14.7339 8.76464C14.7273 8.8014 14.7219 8.8382 14.7169 8.87418C14.713 8.91094 14.7119 8.94536 14.7126 8.97664C14.7126 9.11279 14.7472 9.21764 14.8166 9.29194C14.8856 9.36628 14.9834 9.40304 15.1119 9.40304C15.2803 9.40304 15.4169 9.34437 15.5236 9.22701Z" fill="white"/>
<path d="M21.4151 2.04271L18.9843 2.0379L21.4012 2.0482C21.4058 2.0482 21.4104 2.04271 21.4151 2.04271" fill="#E02F41"/>
<path d="M18.9843 2.0507L14.6633 2.03558C14.6525 2.03558 14.6412 2.04039 14.6299 2.04521L18.9843 2.0507" fill="#2E4F7D"/>
<path d="M20.2851 11.3989L20.4311 10.881H21.1692L21.1373 11.071C21.1373 11.071 21.5145 10.881 21.7861 10.881H22.6988L22.5537 11.3989H22.4101L21.7217 13.8414H21.8652L21.7287 14.3265H21.5851L21.5254 14.5369H20.8106L20.8702 14.3265H19.4601L19.5975 13.8414H19.7388L20.4279 11.3989H20.2851ZM21.0815 11.3989L20.8936 12.0599C20.8936 12.0599 21.215 11.9356 21.492 11.9004C21.5532 11.6695 21.6332 11.3989 21.6332 11.3989H21.0815ZM20.8066 12.3698L20.6181 13.0622C20.6181 13.0622 20.9743 12.8854 21.2188 12.8705C21.2894 12.6029 21.3601 12.3698 21.3601 12.3698H20.8066ZM20.9448 13.8414L21.086 13.3391H20.5351L20.3931 13.8414H20.9448ZM22.7299 10.8489H23.4238L23.4532 11.107C23.4486 11.1727 23.4873 11.2041 23.5696 11.2041H23.6922L23.5682 11.6414H23.0582C22.8634 11.6515 22.7633 11.5765 22.754 11.4145L22.7299 10.8489ZM22.5266 11.7869H24.7741L24.6423 12.2564H23.9267L23.804 12.6928H24.5188L24.3861 13.1615H23.5899L23.4098 13.4362H23.7995L23.8895 13.9861C23.9002 14.0409 23.9484 14.0675 24.0307 14.0675H24.1517L24.0245 14.5204H23.5961C23.3741 14.5315 23.2593 14.4563 23.2499 14.2944L23.1466 13.7921L22.792 14.3265C22.7081 14.4775 22.5793 14.5479 22.4055 14.5369H21.7512L21.8785 14.0839H22.0827C22.1665 14.0839 22.2363 14.0463 22.2991 13.9705L22.8541 13.1615H22.1385L22.2711 12.6928H23.0473L23.1707 12.2564H22.3938L22.5266 11.7869Z" fill="white"/>
<path d="M10.6943 7.61456H11.2402L11.1778 7.93532L11.2561 7.84379C11.4331 7.65292 11.6481 7.55822 11.9019 7.55822C12.1316 7.55822 12.2973 7.62554 12.4013 7.76085C12.5037 7.89622 12.5317 8.08322 12.4832 8.3234L12.1824 9.83647H11.6213L11.893 8.46501C11.9209 8.3234 11.9132 8.21777 11.87 8.14967C11.8274 8.08162 11.7459 8.04802 11.6283 8.04802C11.484 8.04802 11.3625 8.09334 11.2635 8.18335C11.1642 8.2741 11.0986 8.40008 11.0664 8.56044L10.8161 9.83647H10.2538L10.6943 7.61456Z" fill="white"/>
<path d="M16.9555 7.61456H17.5019L17.4399 7.93532L17.5174 7.84379C17.6945 7.65292 17.9102 7.55822 18.1632 7.55822C18.393 7.55822 18.559 7.62554 18.6622 7.76085C18.764 7.89622 18.7934 8.08322 18.7437 8.3234L18.4441 9.83647H17.8822L18.1539 8.46501C18.1818 8.3234 18.1741 8.21777 18.1314 8.14967C18.0871 8.08162 18.0071 8.04802 17.8901 8.04802C17.7457 8.04802 17.6246 8.09334 17.5245 8.18335C17.4251 8.2741 17.3592 8.40008 17.3282 8.56044L17.0767 9.83647H16.5151L16.9555 7.61456Z" fill="white"/>
<path d="M19.6565 6.23758H21.2429C21.5479 6.23758 21.7838 6.30726 21.946 6.44411C22.1074 6.58263 22.1882 6.78137 22.1882 7.04032V7.04811C22.1882 7.09737 22.185 7.15295 22.1804 7.21316C22.1726 7.27263 22.1624 7.33284 22.1494 7.39547C22.0795 7.73816 21.9173 8.01357 21.6666 8.22245C21.4151 8.43055 21.1172 8.5354 20.7741 8.5354H19.9234L19.6604 9.83647H18.9238L19.6565 6.23758ZM20.053 7.90954H20.7586C20.9425 7.90954 21.0883 7.86644 21.1948 7.78121C21.3003 7.69515 21.3702 7.56374 21.4089 7.38537C21.4151 7.35242 21.4189 7.32274 21.4236 7.29537C21.426 7.26958 21.4291 7.24369 21.4291 7.21874C21.4291 7.09116 21.3842 6.99884 21.2941 6.94095C21.204 6.88221 21.0629 6.85411 20.8672 6.85411H20.268L20.053 7.90954Z" fill="white"/>
<path d="M25.4851 10.266C25.2522 10.7651 25.0303 11.0561 24.9 11.1915C24.7694 11.3253 24.5111 11.6367 23.8886 11.6132L23.9422 11.2322C24.466 11.0695 24.7493 10.3363 24.9107 10.0117L24.7183 7.62081L25.1234 7.61534H25.4633L25.4999 9.11514L26.137 7.61534H26.782L25.4851 10.266Z" fill="white"/>
<path d="M23.6815 7.79605L23.4252 7.97369C23.1575 7.76246 22.913 7.63179 22.4412 7.85239C21.7985 8.1528 21.2615 10.4569 23.031 9.69799L23.1319 9.81846L23.8281 9.83647L24.2852 7.74284L23.6815 7.79605V7.79605ZM23.2856 8.94066C23.1738 9.27319 22.924 9.49301 22.7284 9.43043C22.5328 9.36941 22.463 9.0486 22.5763 8.71534C22.688 8.38203 22.9394 8.16299 23.1335 8.22558C23.329 8.2866 23.3996 8.60736 23.2856 8.94066Z" fill="white"/>
</svg>
