<svg width="100" height="100" viewBox="0 0 100 100" fill="none" xmlns="http://www.w3.org/2000/svg">
<path d="M43.6667 46.8333H34.4865L34.4897 46.8048C34.9032 44.7801 35.7124 42.8571 36.871 41.146C38.5951 38.6057 41.0135 36.615 43.8377 35.4111C44.794 35.0058 45.7915 34.6955 46.808 34.4896C48.9167 34.0621 51.0897 34.0621 53.1983 34.4896C56.2288 35.1106 59.0095 36.6094 61.1942 38.7995L65.6782 34.3281C63.6572 32.3066 61.2662 30.6929 58.6355 29.575C57.2938 29.0069 55.8989 28.5741 54.4713 28.283C51.5258 27.6845 48.49 27.6845 45.5445 28.283C44.1159 28.5753 42.7199 29.0092 41.3772 29.5781C37.4205 31.2568 34.0335 34.0434 31.6238 37.6025C30.0021 40.0023 28.8681 42.6976 28.2862 45.535C28.1975 45.9625 28.15 46.3995 28.0867 46.8333H18.3333L31 59.5L43.6667 46.8333ZM56.3333 53.1666H65.5135L65.5103 53.192C64.6829 57.2509 62.2905 60.8207 58.8508 63.129C57.1403 64.2885 55.217 65.0979 53.192 65.5103C51.0844 65.9378 48.9124 65.9378 46.8048 65.5103C44.7802 65.0968 42.8571 64.2875 41.146 63.129C40.3056 62.5605 39.521 61.9137 38.8027 61.1973L34.325 65.675C36.3469 67.6959 38.7391 69.3086 41.3708 70.425C42.7135 70.995 44.1163 71.4288 45.535 71.717C48.4794 72.3158 51.5143 72.3158 54.4587 71.717C60.1351 70.5388 65.1281 67.1931 68.3762 62.3911C69.9963 59.9931 71.1292 57.3 71.7107 54.465C71.7962 54.0375 71.8468 53.6005 71.9102 53.1666H81.6667L69 40.5L56.3333 53.1666Z" fill="#004D99"/>
</svg>
