<svg width="17" height="14" viewBox="0 0 17 14" fill="none" xmlns="http://www.w3.org/2000/svg">
<path d="M15.3019 5.56247C14.7844 5.1781 14.1238 4.91403 13.4419 4.81247C13.235 3.5881 12.6853 2.54153 11.8387 1.76716C10.9422 0.945283 9.75656 0.493408 8.5 0.493408C7.39531 0.493408 6.375 0.839658 5.55094 1.49497C4.92485 1.99347 4.4372 2.64435 4.13469 3.38528C3.19906 3.52903 2.34969 3.90653 1.71625 4.46497C0.920625 5.16653 0.5 6.10122 0.5 7.16841C0.5 8.24716 0.952813 9.23091 1.77469 9.94216C2.55969 10.62 3.61656 10.9934 4.75 10.9934H8V6.2006L6.5 7.7006L5.79281 6.99341L8.5 4.28653L11.2072 6.99341L10.5 7.7006L9 6.2006V10.9934H12.875C13.8544 10.9934 14.7472 10.7184 15.3891 10.2193C16.1159 9.65372 16.5 8.84435 16.5 7.88091C16.5 6.94528 16.0856 6.1431 15.3019 5.56247ZM8 10.9934H9V13.5062H8V10.9934Z" fill="white"/>
</svg>
