<svg width="100" height="100" viewBox="0 0 100 100" fill="none" xmlns="http://www.w3.org/2000/svg">
<path d="M25.8929 31.9691H71.3806V25.862C71.3806 25.5865 71.3185 25.3145 71.1987 25.0654C71.0788 24.8164 70.9043 24.5966 70.6877 24.422C70.4711 24.2473 70.2178 24.1221 69.9461 24.0554C69.6743 23.9887 69.3909 23.9821 69.1162 24.0362L25.5805 31.0742C25.2564 31.1377 24.9547 31.2836 24.7057 31.4973C24.4566 31.7111 24.2688 31.9853 24.1609 32.2926C24.7123 32.0782 25.2999 31.9684 25.8929 31.9691ZM75.1071 34.7619H25.8929C25.3908 34.7619 24.9094 34.9581 24.5544 35.3073C24.1994 35.6564 24 36.13 24 36.6238V70.1381C24 70.6319 24.1994 71.1055 24.5544 71.4547C24.9094 71.8038 25.3908 72 25.8929 72H75.1071C75.6092 72 76.0906 71.8038 76.4456 71.4547C76.8006 71.1055 77 70.6319 77 70.1381V36.6238C77 36.13 76.8006 35.6564 76.4456 35.3073C76.0906 34.9581 75.6092 34.7619 75.1071 34.7619ZM63.8092 57.1048C63.0604 57.1048 62.3285 56.8864 61.7059 56.4772C61.0834 56.068 60.5981 55.4864 60.3116 54.806C60.0251 54.1256 59.9501 53.3768 60.0962 52.6545C60.2423 51.9321 60.6028 51.2686 61.1322 50.7478C61.6617 50.2271 62.3362 49.8724 63.0706 49.7287C63.805 49.585 64.5661 49.6588 65.2579 49.9406C65.9496 50.2225 66.5409 50.6998 66.9569 51.3121C67.3728 51.9245 67.5949 52.6445 67.5949 53.381C67.5949 54.3686 67.196 55.3157 66.4861 56.0141C65.7761 56.7124 64.8132 57.1048 63.8092 57.1048Z" fill="#004D99"/>
<path d="M24 50V33.314C24 31.8802 24.6703 31.1651 25.807 30.9884C29.932 30.3453 38.5312 30 38.5312 30C38.5312 30 37.5551 31.8605 35.3285 31.8605V34.7093C37.4965 34.7093 39 37.4419 39 37.4419L30.2695 47.2674L24 50Z" fill="#004D99"/>
</svg>
