<svg width="100" height="100" viewBox="0 0 100 100" fill="none" xmlns="http://www.w3.org/2000/svg">
<path d="M66.4853 39.5302C66.4434 39.7997 66.3945 40.0751 66.3398 40.3583C64.4678 49.9286 58.0625 53.2294 49.8809 53.2294H45.7158C45.2339 53.2282 44.7675 53.3994 44.4009 53.7121C44.0343 54.0249 43.7916 54.4584 43.7168 54.9344L41.584 68.3954L40.9805 72.2108C40.9588 72.3486 40.9645 72.4894 40.9973 72.625C41.0301 72.7606 41.0894 72.8884 41.1717 73.0011C41.2539 73.1137 41.3576 73.2091 41.4768 73.2816C41.596 73.3541 41.7283 73.4024 41.8662 73.4237C41.9211 73.4323 41.9766 73.4366 42.0322 73.4364H49.4199C49.8424 73.4377 50.2516 73.2882 50.5738 73.0149C50.8959 72.7415 51.1101 72.3623 51.1777 71.9452L51.25 71.5712L52.6406 62.7821L52.7295 62.2997C52.7961 61.8819 53.0099 61.5017 53.3322 61.2277C53.6546 60.9537 54.0643 60.804 54.4873 60.8055H55.5918C62.75 60.8055 68.3525 57.913 69.9902 49.5438C70.6738 46.0477 70.3203 43.1288 68.5098 41.0751C67.9342 40.4416 67.2482 39.9181 66.4853 39.5302Z" fill="#004D99"/>
<path d="M62.6484 29.9893C60.5312 27.5898 56.71 26.5625 51.8193 26.5625H37.6221C37.1392 26.5614 36.6717 26.7327 36.304 27.0457C35.9362 27.3586 35.6923 27.7927 35.6162 28.2695L29.7031 65.5742C29.6783 65.7321 29.6848 65.8933 29.7224 66.0486C29.76 66.2039 29.8278 66.3502 29.9221 66.4793C30.0164 66.6083 30.1352 66.7174 30.2717 66.8004C30.4083 66.8834 30.5598 66.9386 30.7178 66.9629C30.7805 66.9727 30.8438 66.9776 30.9072 66.9775H39.6729L41.874 53.082L41.8057 53.5176C41.8805 53.0415 42.1232 52.608 42.4898 52.2953C42.8564 51.9826 43.3228 51.8113 43.8047 51.8125H47.9697C56.1504 51.8125 62.5557 48.5059 64.4287 38.9414C64.4844 38.6582 64.5312 38.3828 64.5742 38.1133C65.1309 34.5762 64.5693 32.169 62.6484 29.9893Z" fill="#004D99"/>
</svg>
