<svg width="100" height="100" viewBox="0 0 100 100" fill="none" xmlns="http://www.w3.org/2000/svg">
<path d="M24 68.1364C24 68.6306 24.1994 69.1047 24.5544 69.4542C24.9094 69.8037 25.3908 70 25.8929 70H75.1071C75.6092 70 76.0906 69.8037 76.4456 69.4542C76.8006 69.1047 77 68.6306 77 68.1364V45.5398H24V68.1364ZM31.808 52.0625C31.808 51.8154 31.9077 51.5784 32.0852 51.4036C32.2627 51.2289 32.5035 51.1307 32.7545 51.1307H43.6384C43.8894 51.1307 44.1301 51.2289 44.3076 51.4036C44.4851 51.5784 44.5848 51.8154 44.5848 52.0625V59.517C44.5848 59.7642 44.4851 60.0012 44.3076 60.1759C44.1301 60.3507 43.8894 60.4489 43.6384 60.4489H32.7545C32.5035 60.4489 32.2627 60.3507 32.0852 60.1759C31.9077 60.0012 31.808 59.7642 31.808 59.517V52.0625ZM75.1071 29H25.8929C25.3908 29 24.9094 29.1963 24.5544 29.5458C24.1994 29.8953 24 30.3694 24 30.8636V38.5511H77V30.8636C77 30.3694 76.8006 29.8953 76.4456 29.5458C76.0906 29.1963 75.6092 29 75.1071 29Z" fill="#004D99"/>
</svg>
