<svg width="32" height="20" viewBox="0 0 32 20" fill="none" xmlns="http://www.w3.org/2000/svg">
<path d="M29 0H3C1.89543 0 1 0.89543 1 2V18C1 19.1046 1.89543 20 3 20H29C30.1046 20 31 19.1046 31 18V2C31 0.89543 30.1046 0 29 0Z" fill="#0072CE"/>
<path d="M31 12.4747H29.4654C29.3122 12.4747 29.2104 12.4805 29.1247 12.5394C29.0358 12.5974 29.0016 12.6834 29.0016 12.7971C29.0016 12.9322 29.0766 13.0241 29.1857 13.0638C29.2746 13.0953 29.37 13.1044 29.5102 13.1044L29.9666 13.1169C30.4271 13.1284 30.7345 13.2089 30.9219 13.4051C30.956 13.4324 30.9765 13.4631 31 13.4938V12.4747ZM31 14.8359C30.7955 15.14 30.3969 15.2941 29.8574 15.2941H28.2313V14.5261H29.8508C30.0114 14.5261 30.1238 14.5046 30.1915 14.4374C30.2502 14.382 30.2911 14.3015 30.2911 14.2038C30.2911 14.0995 30.2502 14.0166 30.1882 13.967C30.1271 13.9123 30.0382 13.8875 29.8916 13.8875C29.101 13.8601 28.1146 13.9123 28.1146 12.7789C28.1146 12.2594 28.4391 11.7126 29.3227 11.7126H30.9999L31 11H29.4416C28.9713 11 28.6297 11.1145 28.3878 11.2925V11H26.0829C25.7143 11 25.2816 11.0929 25.077 11.2925V11H20.961V11.2925C20.6334 11.0523 20.0807 11 19.8256 11H17.1106V11.2925C16.8515 11.0374 16.2752 11 15.9239 11H12.8854L12.1901 11.7649L11.5389 11H7V15.9975H11.4534L12.1699 15.2205L12.8448 15.9975L15.5899 16V14.8244H15.8598C16.2241 14.8301 16.6536 14.8152 17.0326 14.6487V15.9974H19.2969V14.6949H19.4061C19.5455 14.6949 19.5592 14.7007 19.5592 14.8423V15.9973H26.4375C26.8742 15.9973 27.3307 15.8837 27.5835 15.6775V15.9973H29.7652C30.2193 15.9973 30.6626 15.9326 31 15.7669V14.8359ZM27.6413 13.4051C27.8052 13.5776 27.8931 13.7953 27.8931 14.1639C27.8931 14.9344 27.4195 15.2941 26.5704 15.2941H24.9304V14.5261H26.5638C26.7235 14.5261 26.8367 14.5046 26.9077 14.4374C26.9656 14.382 27.0072 14.3015 27.0072 14.2038C27.0072 14.0995 26.9622 14.0166 26.9044 13.967C26.84 13.9123 26.7512 13.8875 26.6046 13.8875C25.8171 13.8601 24.831 13.9123 24.831 12.7789C24.831 12.2594 25.1521 11.7126 26.0348 11.7126H27.7229V12.4749H26.1783C26.0252 12.4749 25.9256 12.4807 25.8409 12.5396C25.7487 12.5976 25.7145 12.6837 25.7145 12.7973C25.7145 12.9324 25.7928 13.0243 25.8987 13.064C25.9876 13.0955 26.083 13.1047 26.2264 13.1047L26.6797 13.1171C27.1368 13.1284 27.4505 13.2088 27.6413 13.4051ZM20.0434 13.1839C19.9308 13.2519 19.7915 13.2577 19.6276 13.2577H18.6047V12.4533H19.6416C19.7915 12.4533 19.9415 12.4565 20.0434 12.518C20.1525 12.576 20.2178 12.6869 20.2178 12.8402C20.2178 12.9934 20.1525 13.1169 20.0434 13.1839ZM20.5519 13.6297C20.7393 13.7 20.8926 13.826 20.9644 13.9303C21.0833 14.1052 21.1005 14.2684 21.1039 14.5841V15.2941H20.2586V14.846C20.2586 14.6305 20.279 14.3115 20.1224 14.1449C19.9994 14.0166 19.8119 13.986 19.5047 13.986H18.6048V15.2941H17.7588V11.7125H19.7028C20.129 11.7125 20.4395 11.7316 20.7159 11.8815C20.9816 12.0447 21.1487 12.2683 21.1487 12.6769C21.1486 13.2485 20.7736 13.5402 20.5519 13.6297ZM21.6156 11.7125H24.4259V12.4532H22.4541V13.1043H24.3777V13.8351H22.4541V14.5477L24.4259 14.5509V15.2941H21.6156V11.7125ZM15.9346 13.3654H14.8465V12.4533H15.9444C16.2484 12.4533 16.4594 12.5792 16.4594 12.8924C16.4594 13.2022 16.2582 13.3654 15.9346 13.3654ZM14.0079 14.9684L12.7151 13.5094L14.0079 12.0969V14.9684ZM10.6693 14.5477H8.59909V13.8351H10.4477V13.1043H8.59909V12.4532H10.7101L11.6311 13.4969L10.6693 14.5477ZM17.3634 12.8924C17.3634 13.8874 16.6331 14.0928 15.8971 14.0928H14.8465V15.2941H13.2099L12.1731 14.1084L11.0956 15.2941H7.76034V11.7125H11.1469L12.1829 12.8865L13.2539 11.7125H15.9444C16.6126 11.7125 17.3634 11.9005 17.3634 12.8924Z" fill="white"/>
<path d="M3.67974 6.74749L3.10784 5.31906L2.53921 6.74749H3.67974ZM16.2787 6.17869C16.1639 6.25013 16.0281 6.25251 15.8654 6.25251H14.8503V5.45664H15.8792C16.0248 5.45664 16.1767 5.46334 16.2754 5.52127C16.3838 5.57347 16.4509 5.68457 16.4509 5.83804C16.4509 5.99464 16.3871 6.12066 16.2787 6.17869ZM23.5201 6.74749L22.9419 5.31906L22.3668 6.74749H23.5201ZM10.0217 8.29362H9.16513L9.16197 5.48733L7.95036 8.29362H7.21671L6.00194 5.48485V8.29362H4.30247L3.98141 7.4944H2.24166L1.91732 8.29362H1.00981L2.5061 4.71049H3.74754L5.16866 8.10297V4.71049H6.53241L7.62592 7.14121L8.63044 4.71049H10.0216V8.29362H10.0217ZM13.4357 8.29362H10.6444V4.71049H13.4357V5.45664H11.4801V6.1025H13.3888V6.83698H11.4801V7.55255H13.4357V8.29362ZM17.3714 5.67549C17.3714 6.24678 16.9994 6.54193 16.7826 6.63056C16.9654 6.70188 17.1216 6.8279 17.1959 6.9323C17.3139 7.11052 17.3343 7.26971 17.3343 7.58972V8.29362H16.4915L16.4883 7.84176C16.4883 7.62615 16.5085 7.31608 16.3564 7.1437C16.2343 7.01768 16.0482 6.99034 15.7474 6.99034H14.8504V8.29362H14.0149V4.71049H15.9368C16.3638 4.71049 16.6784 4.72205 16.9486 4.88211C17.2129 5.04217 17.3714 5.27583 17.3714 5.67549ZM18.7086 8.29362H17.856V4.71049H18.7086V8.29362ZM28.5996 8.29362H27.4155L25.8317 5.60427V8.29362H24.13L23.8049 7.4944H22.0691L21.7537 8.29362H20.7759C20.3698 8.29362 19.8555 8.20154 19.5643 7.89731C19.2707 7.59307 19.1179 7.18098 19.1179 6.5294C19.1179 5.99799 19.2092 5.51219 19.5683 5.12831C19.8385 4.84234 20.2615 4.71049 20.8373 4.71049H21.6462V5.47826H20.8543C20.5493 5.47826 20.3771 5.52473 20.2113 5.69052C20.0688 5.84139 19.9711 6.1266 19.9711 6.50216C19.9711 6.88605 20.0455 7.16283 20.2008 7.34364C20.3295 7.48543 20.5632 7.52845 20.7832 7.52845H21.1584L22.3361 4.7106H23.5881L25.0028 8.09973V4.7106H26.275L27.7438 7.20606V4.7106H28.5996V8.29362ZM1.00011 8.99741H2.42776L2.74966 8.20154H3.47034L3.7914 8.99741H6.60042V8.38894L6.85115 9H8.30938L8.56012 8.37986V8.99741H15.5411L15.5378 7.69099H15.6729C15.7674 7.69434 15.7951 7.70331 15.7951 7.86337V8.99741H19.4056V8.69328C19.6968 8.85323 20.1498 8.99741 20.7459 8.99741H22.2648L22.5899 8.20154H23.3106L23.6285 8.99741H26.5556V8.24142L26.9988 8.99741H29.3445V4H27.0231V4.5902L26.698 4H24.316V4.5902L24.0175 4H20.8001C20.2615 4 19.7881 4.07706 19.4056 4.2918V4H17.1853V4.2918C16.9419 4.07047 16.6103 4 16.2416 4H8.12982L7.58554 5.29074L7.0266 4H4.4716V4.5902L4.19092 4H2.0119L1 6.37604V8.99741H1.00011Z" fill="white"/>
</svg>
