<svg width="32" height="20" viewBox="0 0 32 20" fill="none" xmlns="http://www.w3.org/2000/svg">
<path d="M28.5 0.5H3.5C2.39543 0.5 1.5 1.39543 1.5 2.5V17.5C1.5 18.6046 2.39543 19.5 3.5 19.5H28.5C29.6046 19.5 30.5 18.6046 30.5 17.5V2.5C30.5 1.39543 29.6046 0.5 28.5 0.5Z" fill="white" stroke="#0069AA"/>
<path d="M6.51594 12.4943C6.51594 12.0921 6.30578 12.1185 6.10474 12.1143V11.998C6.27906 12.0065 6.4578 12.0065 6.63259 12.0065C6.82036 12.0065 7.07531 11.998 7.40654 11.998C8.56488 11.998 9.19583 12.7715 9.19583 13.5636C9.19583 14.0069 8.93638 15.1204 7.35273 15.1204C7.12478 15.1204 6.91425 15.1116 6.70409 15.1116C6.50295 15.1116 6.30578 15.1157 6.10474 15.1204V15.0041C6.37285 14.977 6.50295 14.9682 6.51594 14.6641V12.4943ZM6.95433 14.5923C6.95433 14.9369 7.20061 14.977 7.41971 14.977C8.38623 14.977 8.70336 14.248 8.70336 13.5816C8.70336 12.7451 8.16667 12.1413 7.30344 12.1413C7.11962 12.1413 7.03504 12.1544 6.95433 12.1592V14.5923Z" fill="#1A1918"/>
<path d="M9.35254 15.0041H9.4373C9.56252 15.0041 9.65208 15.0041 9.65208 14.8561V13.6439C9.65208 13.4474 9.58509 13.4202 9.41934 13.331V13.2596C9.62959 13.1964 9.8803 13.112 9.89799 13.0986C9.9295 13.0806 9.95594 13.0758 9.9787 13.0758C10.0006 13.0758 10.0098 13.1027 10.0098 13.1388V14.8561C10.0098 15.0041 10.1084 15.0041 10.2338 15.0041H10.3096V15.1204C10.1574 15.1204 10.0006 15.1116 9.84013 15.1116C9.67907 15.1116 9.51792 15.1157 9.35254 15.1204V15.0041ZM9.8311 12.3872C9.71454 12.3872 9.6119 12.2799 9.6119 12.1636C9.6119 12.0515 9.71943 11.9484 9.8311 11.9484C9.94719 11.9484 10.0504 12.0427 10.0504 12.1636C10.0504 12.2846 9.9517 12.3872 9.8311 12.3872Z" fill="#1A1918"/>
<path d="M10.7347 13.6708C10.7347 13.5056 10.6853 13.461 10.4754 13.3758V13.2909C10.6675 13.2283 10.8507 13.1699 11.0657 13.0758C11.0792 13.0758 11.0922 13.0848 11.0922 13.1205V13.4114C11.3476 13.2283 11.5668 13.0758 11.867 13.0758C12.2467 13.0758 12.3808 13.3532 12.3808 13.7022V14.8561C12.3808 15.0041 12.4795 15.0041 12.6046 15.0041H12.6853V15.1204C12.5283 15.1204 12.3719 15.1116 12.211 15.1116C12.0499 15.1116 11.8887 15.1157 11.7277 15.1204V15.0041H11.8084C11.9337 15.0041 12.0228 15.0041 12.0228 14.8561V13.698C12.0228 13.4427 11.867 13.3176 11.6117 13.3176C11.4684 13.3176 11.2403 13.4337 11.0922 13.5325V14.8561C11.0922 15.0041 11.1911 15.0041 11.3164 15.0041H11.3967V15.1204C11.2403 15.1204 11.0836 15.1116 10.9223 15.1116C10.7616 15.1116 10.6004 15.1157 10.4395 15.1204V15.0041H10.5202C10.6453 15.0041 10.7347 15.0041 10.7347 14.8561V13.6708Z" fill="#1A1918"/>
<path d="M13.0253 13.8859C13.0162 13.9262 13.0162 13.9931 13.0253 14.1453C13.0517 14.5702 13.3251 14.9189 13.6826 14.9189C13.929 14.9189 14.1215 14.7847 14.2867 14.6195L14.3491 14.6821C14.1433 14.955 13.8884 15.1877 13.5219 15.1877C12.8104 15.1877 12.6674 14.4984 12.6674 14.2123C12.6674 13.3355 13.2577 13.0758 13.5705 13.0758C13.9332 13.0758 14.3227 13.304 14.3268 13.7783C14.3268 13.8055 14.3268 13.832 14.3227 13.8589L14.2822 13.8859H13.0253ZM13.8174 13.7426C13.929 13.7426 13.9421 13.6844 13.9421 13.6305C13.9421 13.4027 13.8035 13.2193 13.5529 13.2193C13.2803 13.2193 13.0923 13.4202 13.0387 13.7426H13.8174Z" fill="#1A1918"/>
<path d="M14.4299 15.0041H14.5508C14.6756 15.0041 14.7651 15.0041 14.7651 14.8561V13.5993C14.7651 13.461 14.5997 13.4337 14.5326 13.3979V13.331C14.8591 13.1923 15.0381 13.0758 15.079 13.0758C15.1052 13.0758 15.1187 13.0893 15.1187 13.1342V13.5369H15.1281C15.2395 13.3625 15.4278 13.0758 15.7005 13.0758C15.8123 13.0758 15.9553 13.1518 15.9553 13.313C15.9553 13.4337 15.8707 13.5416 15.7455 13.5416C15.6063 13.5416 15.6063 13.4337 15.4496 13.4337C15.3737 13.4337 15.1232 13.5369 15.1232 13.8055V14.8561C15.1232 15.0041 15.2125 15.0041 15.3378 15.0041H15.5881V15.1204C15.3421 15.1157 15.1549 15.1116 14.9623 15.1116C14.7789 15.1116 14.5909 15.1157 14.4299 15.1204V15.0041Z" fill="#1A1918"/>
<path d="M16.152 14.4984C16.2103 14.7936 16.3889 15.0445 16.7161 15.0445C16.9796 15.0445 17.0779 14.8833 17.0779 14.7268C17.0779 14.1987 16.103 14.3689 16.103 13.6487C16.103 13.3979 16.3044 13.0759 16.7965 13.0759C16.9394 13.0759 17.1317 13.1165 17.306 13.206L17.3374 13.6619H17.2346C17.1899 13.3802 17.0336 13.2193 16.7469 13.2193C16.568 13.2193 16.3982 13.322 16.3982 13.5144C16.3982 14.0381 17.4357 13.8768 17.4357 14.5791C17.4357 14.8741 17.199 15.1877 16.6664 15.1877C16.4877 15.1877 16.277 15.1249 16.1209 15.0355L16.0715 14.521L16.152 14.4984Z" fill="#1A1918"/>
<path d="M21.4751 12.8074H21.3635C21.2784 12.2846 20.9071 12.074 20.4064 12.074C19.8914 12.074 19.1446 12.4182 19.1446 13.4918C19.1446 14.3958 19.789 15.0445 20.4777 15.0445C20.9202 15.0445 21.2878 14.7402 21.3771 14.2702L21.48 14.2969L21.3771 14.9503C21.1892 15.0667 20.6836 15.1877 20.388 15.1877C19.3417 15.1877 18.6797 14.5121 18.6797 13.5056C18.6797 12.5883 19.4983 11.9306 20.3751 11.9306C20.7373 11.9306 21.0861 12.0472 21.4306 12.1681L21.4751 12.8074Z" fill="#1A1918"/>
<path d="M21.6366 15.0041H21.7213C21.8469 15.0041 21.9362 15.0041 21.9362 14.8561V12.3651C21.9362 12.074 21.8692 12.0652 21.6991 12.0159V11.9442C21.8779 11.8862 22.066 11.8058 22.1601 11.7517C22.2087 11.7253 22.2448 11.7024 22.258 11.7024C22.2853 11.7024 22.2942 11.7296 22.2942 11.7655V14.8561C22.2942 15.0041 22.3927 15.0041 22.5178 15.0041H22.5935V15.1204C22.4419 15.1204 22.2853 15.1116 22.1242 15.1116C21.9632 15.1116 21.8024 15.1157 21.6366 15.1204V15.0041Z" fill="#1A1918"/>
<path d="M24.5088 14.8741C24.5088 14.955 24.5577 14.9592 24.6336 14.9592C24.6876 14.9592 24.7544 14.955 24.813 14.955V15.0491C24.6205 15.0668 24.2535 15.1608 24.1684 15.1877L24.1461 15.1741V14.8117C23.878 15.0308 23.6719 15.1877 23.3539 15.1877C23.1124 15.1877 22.8621 15.0308 22.8621 14.6555V13.51C22.8621 13.3935 22.8443 13.2817 22.5941 13.2596V13.1744C22.7553 13.17 23.1124 13.1433 23.1707 13.1433C23.2204 13.1433 23.2204 13.1744 23.2204 13.273V14.427C23.2204 14.5613 23.2204 14.9456 23.6095 14.9456C23.7613 14.9456 23.9626 14.8296 24.1504 14.6733V13.4696C24.1504 13.3802 23.9358 13.331 23.775 13.2865V13.2061C24.1772 13.1788 24.428 13.1433 24.4727 13.1433C24.5088 13.1433 24.5088 13.1744 24.5088 13.2238V14.8741Z" fill="#1A1918"/>
<path d="M25.3987 13.3979C25.5776 13.2462 25.8192 13.0758 26.0652 13.0758C26.5843 13.0758 26.8974 13.5281 26.8974 14.0156C26.8974 14.6014 26.4678 15.1877 25.8278 15.1877C25.4971 15.1877 25.3226 15.08 25.2061 15.0308L25.0723 15.1337L24.9785 15.0847C25.0185 14.8208 25.0411 14.5613 25.0411 14.2883V12.3651C25.0411 12.074 24.9737 12.0652 24.8037 12.0159V11.9442C24.9828 11.8862 25.1705 11.8058 25.2644 11.7517C25.3138 11.7253 25.3494 11.7024 25.3631 11.7024C25.3897 11.7024 25.3987 11.7297 25.3987 11.7655V13.3979ZM25.3987 14.6148C25.3987 14.7847 25.5599 15.0712 25.8595 15.0712C26.3381 15.0712 26.5393 14.6014 26.5393 14.2031C26.5393 13.7201 26.1729 13.3176 25.824 13.3176C25.6578 13.3176 25.5194 13.4251 25.3987 13.5281V14.6148Z" fill="#1A1918"/>
<path d="M20.7547 17.7163V17.7263C20.3537 17.7259 20.1552 17.3024 20.1544 16.8642C20.1552 16.5366 20.282 16.1476 20.7135 16.1476C21.1238 16.1485 21.3151 16.5872 21.3159 16.9449C21.3151 17.2998 21.2322 17.7263 20.7547 17.7263V17.7056C21.2141 17.7053 21.294 17.2998 21.2947 16.9449C21.2947 16.5923 21.1062 16.1697 20.7135 16.1691C20.299 16.1695 20.1765 16.5399 20.1754 16.8642C20.1756 17.2977 20.372 17.705 20.7547 17.7056V17.7163C21.2236 17.7163 21.3053 17.2998 21.3053 16.9449C21.3053 16.5891 21.1149 16.1585 20.7136 16.1585C20.2908 16.1585 20.1651 16.5383 20.1651 16.8642C20.1651 17.2998 20.3633 17.7163 20.7546 17.7163H20.7547ZM20.7181 16.0513C21.2332 16.0513 21.6438 16.373 21.6438 16.8914C21.6438 17.4513 21.245 17.8235 20.7306 17.8235C20.2181 17.8235 19.8268 17.4729 19.8268 16.9495C19.8268 16.4435 20.2157 16.0514 20.718 16.0513V16.062C21.229 16.0625 21.6331 16.379 21.6336 16.8911C21.6329 17.4455 21.2399 17.8123 20.7307 17.8125C20.2231 17.8123 19.8375 17.467 19.8365 16.9495C19.8371 16.4488 20.2213 16.062 20.718 16.062V16.0407C20.2104 16.0416 19.817 16.4376 19.816 16.9495C19.817 17.4787 20.2138 17.8328 20.7307 17.8337C21.2501 17.8328 21.6536 17.4568 21.6541 16.8911C21.6532 16.3661 21.2368 16.0413 20.718 16.0407V16.0513H20.7181ZM17.5441 16.2095C17.3629 16.2095 17.3556 16.2536 17.3192 16.431H17.2466C17.2561 16.3628 17.2685 16.2947 17.276 16.2242C17.2854 16.1557 17.29 16.0878 17.29 16.0174H17.3485C17.3674 16.0905 17.428 16.0878 17.4932 16.0878H18.7402C18.8051 16.0878 18.8655 16.0854 18.8702 16.0123L18.928 16.0223C18.9191 16.0878 18.9095 16.1536 18.9019 16.2195C18.8966 16.2852 18.8966 16.3507 18.8966 16.4164L18.8244 16.4435C18.8201 16.3535 18.8079 16.2095 18.6457 16.2095H18.2495V17.5045C18.2495 17.6923 18.3342 17.7137 18.45 17.7137H18.4962V17.7869C18.4018 17.7869 18.2329 17.7775 18.1021 17.7775C17.9574 17.7775 17.7879 17.7869 17.6937 17.7869V17.7137H17.7397C17.8728 17.7137 17.9402 17.7018 17.9402 17.5096V16.2095H17.5441V16.1986C17.3631 16.196 17.3422 16.2511 17.3104 16.4209H17.2585C17.2677 16.3568 17.2793 16.2924 17.2859 16.2253C17.2954 16.1604 17.3002 16.095 17.3007 16.0276H17.3403C17.3622 16.0957 17.4239 16.099 17.4808 16.0984H18.7402C18.8003 16.0995 18.8685 16.0955 18.8796 16.0247L18.9161 16.0311C18.9073 16.0932 18.8981 16.1555 18.8916 16.2183C18.8867 16.2819 18.8863 16.3456 18.8863 16.4092L18.8338 16.4286C18.8292 16.3381 18.808 16.1993 18.6457 16.1986H18.2391V17.5045C18.2393 17.6961 18.3334 17.7242 18.4499 17.7247H18.4854V17.7765C18.39 17.7757 18.2283 17.7667 18.102 17.7667C17.9619 17.7667 17.7996 17.7757 17.7041 17.7765V17.7247H17.7397C17.8724 17.7242 17.9507 17.705 17.9507 17.5096V16.1986H17.5441V16.2199H17.9294L17.9295 17.5096C17.9263 17.6984 17.8729 17.7001 17.7397 17.7032H17.6831V17.7973H17.6938C17.7884 17.7973 17.9576 17.7876 18.102 17.7876C18.2318 17.7876 18.4012 17.7973 18.4962 17.7973H18.5062V17.7032H18.4499C18.3347 17.7009 18.2624 17.688 18.2599 17.5045V16.2199H18.6457C18.7984 16.2199 18.808 16.3524 18.8144 16.444L18.8147 16.4581L18.9002 16.4266L18.9073 16.4237V16.4164C18.9073 16.3507 18.9073 16.2852 18.9122 16.2199C18.9195 16.1547 18.9287 16.0892 18.9386 16.0239L18.9403 16.0131L18.8717 16.0022L18.8604 16L18.8601 16.0117C18.8558 16.0752 18.807 16.0761 18.7402 16.0772H17.4808C17.419 16.0761 17.375 16.0756 17.3581 16.0143L17.3561 16.0066H17.2793V16.0174C17.2793 16.0872 17.2749 16.1547 17.265 16.2228C17.2579 16.2929 17.2461 16.3613 17.2359 16.4297L17.2344 16.4418H17.3277L17.3295 16.4335C17.3689 16.2537 17.365 16.2231 17.5441 16.2199V16.2095ZM9.14638 16.2095C8.96492 16.2095 8.95788 16.2536 8.92166 16.431H8.84913C8.85864 16.3628 8.87062 16.2947 8.87812 16.2242C8.88782 16.1557 8.89266 16.0878 8.89266 16.0174H8.95056C8.97004 16.0905 9.0304 16.0878 9.09598 16.0878H10.3422C10.4078 16.0878 10.4681 16.0854 10.473 16.0123L10.5307 16.0223C10.5214 16.0878 10.5115 16.1536 10.5045 16.2195C10.4997 16.2852 10.4997 16.3507 10.4997 16.4164L10.4271 16.4435C10.4222 16.3535 10.4102 16.2095 10.2483 16.2095H9.85201V17.5045C9.85201 17.6923 9.9367 17.7137 10.0525 17.7137H10.0986V17.7869C10.0043 17.7869 9.83509 17.7775 9.70484 17.7775C9.55969 17.7775 9.3904 17.7869 9.2961 17.7869V17.7137H9.3422C9.47537 17.7137 9.54268 17.7018 9.54268 17.5096V16.2095H9.14638V16.1986C8.96574 16.1963 8.94507 16.2511 8.91333 16.4209H8.86175C8.87053 16.3564 8.8816 16.2922 8.88882 16.2253C8.89797 16.1604 8.90254 16.0951 8.90291 16.0278H8.94278C8.96455 16.0957 9.02647 16.0985 9.08336 16.0984H10.3421C10.4027 16.0993 10.4708 16.0955 10.4821 16.0247L10.5188 16.0309C10.5097 16.0932 10.5009 16.1551 10.4938 16.218C10.4895 16.2819 10.4892 16.3456 10.4892 16.4092L10.4369 16.4286C10.4319 16.3381 10.4104 16.1993 10.2483 16.1986H9.84158V17.5045C9.84158 17.6958 9.9356 17.7247 10.0525 17.7249H10.0878V17.7763C9.99203 17.7757 9.8306 17.7667 9.70484 17.7667C9.56454 17.7667 9.40174 17.7757 9.30644 17.7763V17.7249H9.3422C9.47463 17.7247 9.55283 17.705 9.55283 17.5096V16.1986H9.14638V16.2199H9.53189V17.5096C9.52887 17.6984 9.47537 17.7001 9.3422 17.7032H9.28577V17.7973H9.2961C9.39086 17.7973 9.55988 17.7876 9.70484 17.7876C9.83454 17.7876 10.0036 17.7973 10.0988 17.7973H10.109V17.7032H10.0525C9.93725 17.7009 9.86499 17.688 9.86262 17.5045V16.2199H10.2483C10.4011 16.2199 10.4104 16.3524 10.4171 16.444L10.4176 16.4581L10.5031 16.4266L10.5102 16.4237V16.4164C10.5102 16.3506 10.5102 16.2852 10.5146 16.2199C10.522 16.1547 10.5314 16.0892 10.541 16.0239L10.5427 16.0131L10.4744 16.0022L10.4634 16L10.4626 16.0115C10.4585 16.0752 10.4095 16.0761 10.3421 16.0772H9.08336C9.02172 16.0761 8.97699 16.0756 8.96071 16.0143L8.95888 16.0066H8.88214V16.0174C8.88214 16.0872 8.87757 16.1547 8.86751 16.2222C8.86047 16.2929 8.84821 16.3613 8.83834 16.4292L8.83705 16.4418H8.93016L8.9319 16.4335C8.97132 16.2537 8.96739 16.2235 9.14638 16.2199V16.2095ZM6.74752 17.7973C6.63063 17.7973 6.48603 17.7875 6.36576 17.7875C6.2475 17.7875 6.10536 17.7973 6.01052 17.7973H6V17.7032H6.04427C6.13198 17.7011 6.21173 17.694 6.21247 17.5751V16.2999C6.21173 16.1808 6.13198 16.173 6.04427 16.1715H6V16.0772H6.01052C6.10536 16.0772 6.25024 16.0867 6.36841 16.0867C6.48859 16.0867 6.63328 16.0772 6.74752 16.0772H6.75831V16.1715H6.71386C6.62606 16.173 6.54584 16.1808 6.54539 16.2999V17.5751C6.54584 17.694 6.62606 17.7011 6.71386 17.7032H6.75831V17.7973H6.74752ZM8.54721 17.8337L8.4477 17.8303L7.22147 16.4535V17.4291C7.2244 17.6408 7.25632 17.7009 7.43824 17.7032H7.49V17.7973H7.4793C7.37476 17.7973 7.27077 17.7875 7.16769 17.7875C7.05949 17.7875 6.94846 17.7973 6.83898 17.7973H6.82837V17.7032H6.873C7.0327 17.7023 7.07834 17.5989 7.08007 17.4051V16.38C7.07962 16.2503 6.97407 16.1715 6.87072 16.1715H6.82837V16.0772H6.83898C6.93136 16.0772 7.02593 16.0867 7.11657 16.0867C7.18864 16.0867 7.25842 16.0772 7.33992 16.081L8.40179 17.2851V16.3898C8.4006 16.1965 8.27237 16.173 8.20203 16.1715H8.1381V16.0772H8.1488C8.26295 16.0772 8.37417 16.0867 8.48703 16.0867C8.58535 16.0867 8.6844 16.0772 8.78428 16.0772H8.79489V16.1715H8.74834C8.64855 16.174 8.54621 16.1829 8.54328 16.47V17.5775C8.54328 17.6627 8.54593 17.7477 8.55755 17.8215L8.55974 17.8337H8.54721ZM11.9006 17.7973C11.7455 17.7973 11.4675 17.7872 11.2507 17.7872C11.0331 17.7872 10.7459 17.7973 10.6078 17.7973H10.5977V17.7032H10.6419C10.7293 17.7018 10.8089 17.694 10.81 17.5751V16.2999C10.8089 16.181 10.7293 16.173 10.6419 16.1715H10.5977V16.0772H10.6078C10.7555 16.0772 11.0068 16.0867 11.2093 16.0867C11.4124 16.0867 11.6633 16.0772 11.8279 16.0772H11.8386L11.8382 16.0885C11.8366 16.1248 11.8356 16.1681 11.8356 16.2139C11.8356 16.2981 11.8382 16.3903 11.8429 16.4596L11.8434 16.4682L11.8353 16.4707L11.7503 16.4931L11.7499 16.4806C11.7357 16.3227 11.7146 16.2078 11.4658 16.2054H11.1402L11.14 16.8219H11.4173C11.5566 16.8204 11.5815 16.7487 11.5979 16.6174L11.5985 16.6076H11.6914L11.6912 16.6188C11.6865 16.7139 11.6837 16.8085 11.6837 16.9033C11.6837 16.9954 11.6865 17.0878 11.6912 17.1803L11.6914 17.1891L11.6826 17.1911L11.5985 17.208L11.5979 17.1966C11.5812 17.048 11.5801 16.9665 11.4198 16.9648H11.1402V17.5214C11.1405 17.6693 11.2671 17.6685 11.4246 17.6693C11.7155 17.6676 11.8321 17.6532 11.9049 17.3802L11.9073 17.3703L11.9175 17.372L11.995 17.3923L11.9928 17.4023C11.9614 17.5311 11.9326 17.6598 11.9107 17.7887L11.9089 17.7973H11.9006ZM13.744 17.7973C13.6629 17.7973 13.5861 17.7875 13.5066 17.7875C13.433 17.7875 13.3557 17.7973 13.2716 17.7933C13.0862 17.5482 12.9273 17.2869 12.7713 17.009H12.6285V17.5188C12.6312 17.702 12.7041 17.7007 12.8157 17.7032H12.87V17.7973H12.8593C12.7212 17.7973 12.5808 17.7875 12.4439 17.7875C12.3284 17.7875 12.2149 17.7973 12.0936 17.7973H12.083V17.7032H12.1372C12.2241 17.7026 12.2975 17.6645 12.2979 17.5826V16.3456C12.296 16.173 12.2122 16.1739 12.1372 16.1715H12.083V16.0772H12.0936C12.1718 16.0772 12.3209 16.0867 12.4683 16.0867C12.6125 16.0867 12.7284 16.0772 12.8572 16.0772C13.1618 16.0779 13.4422 16.1623 13.4429 16.516C13.4429 16.7356 13.2987 16.8729 13.1124 16.9495L13.5182 17.5618C13.5858 17.6628 13.6278 17.688 13.7454 17.7032L13.7541 17.7046V17.7973H13.744ZM12.7363 16.9C12.9754 16.8976 13.096 16.814 13.0984 16.5313C13.0969 16.3186 12.9658 16.1867 12.7554 16.1857C12.6902 16.1857 12.6593 16.1918 12.6285 16.1949V16.9H12.7363ZM15.5243 17.8337L15.425 17.8303L14.1986 16.4537V17.429C14.2015 17.641 14.2333 17.7009 14.4155 17.7032H14.4667V17.7973H14.4562C14.3517 17.7973 14.248 17.7872 14.1445 17.7872C14.0367 17.7872 13.925 17.7973 13.8161 17.7973H13.8054V17.7032H13.8498C14.0094 17.7026 14.0551 17.5989 14.0567 17.4045V16.3796C14.0564 16.2499 13.9511 16.1715 13.8477 16.1715H13.8054V16.0772H13.8161C13.9084 16.0772 14.003 16.0867 14.0942 16.0867C14.1652 16.0867 14.2351 16.0772 14.3162 16.0803L15.3784 17.2851V16.3898C15.3778 16.1965 15.2491 16.1726 15.1788 16.1715H15.1151V16.0772H15.1256C15.2397 16.0772 15.3511 16.0867 15.4641 16.0867C15.5625 16.0867 15.6615 16.0772 15.7611 16.0772H15.7718V16.1715H15.7251C15.6254 16.1739 15.5227 16.1829 15.5204 16.47V17.5775C15.5204 17.6627 15.5225 17.7471 15.5348 17.8217L15.536 17.8337H15.5243ZM17.4372 17.7973C17.3286 17.7926 17.2197 17.7872 17.1047 17.7872C16.9862 17.7872 16.8657 17.7926 16.7424 17.7973L16.7312 17.7979V17.7028H16.7684C16.8244 17.7028 16.9075 17.6902 16.9076 17.6433C16.9082 17.6155 16.8865 17.5488 16.8599 17.4714L16.7679 17.196H16.2349L16.1598 17.442C16.1354 17.5248 16.1061 17.5891 16.1065 17.6287C16.1074 17.6881 16.1975 17.7028 16.2777 17.7028H16.3149V17.7979L16.3039 17.7973C16.2073 17.7926 16.1087 17.7872 16.0121 17.7872C15.9258 17.7872 15.8385 17.7926 15.7519 17.7973L15.7407 17.7979V17.7028H15.7657C15.8556 17.7026 15.9306 17.6509 15.9655 17.552L16.3525 16.4348C16.3837 16.3447 16.4276 16.2236 16.4484 16.1263C16.5242 16.1004 16.6215 16.0513 16.6678 16.0219C16.6746 16.0195 16.6813 16.0164 16.691 16.0164C16.6969 16.016 16.7099 16.0176 16.7178 16.0303C16.7246 16.0503 16.7323 16.0721 16.7396 16.0918L17.1845 17.3648C17.2129 17.45 17.2418 17.54 17.2735 17.6121C17.3015 17.677 17.3458 17.7026 17.4235 17.7028H17.4479V17.7979L17.4372 17.7973ZM16.2874 17.0387H16.7104L16.5001 16.3864L16.2874 17.0387ZM19.7547 17.7973C19.6379 17.7973 19.4934 17.7872 19.3728 17.7872C19.2546 17.7872 19.1119 17.7973 19.0175 17.7973H19.0072V17.7032H19.0514C19.1385 17.7018 19.2188 17.694 19.2193 17.5751V16.2999C19.2188 16.181 19.1385 16.173 19.0514 16.1715H19.0072V16.0772H19.0175C19.1119 16.0772 19.2572 16.0867 19.3747 16.0867C19.4952 16.0867 19.6402 16.0772 19.7547 16.0772H19.7647V16.1715H19.7208C19.6324 16.173 19.5529 16.181 19.5521 16.2999V17.5751C19.5529 17.694 19.6324 17.7018 19.7208 17.7032H19.7647V17.7973H19.7547ZM23.4125 17.8337L23.3125 17.8303L22.0863 16.4537V17.4291C22.0891 17.641 22.1211 17.7007 22.3025 17.7028H22.3546V17.7973H22.3443C22.2397 17.7973 22.136 17.7875 22.0326 17.7875C21.9243 17.7875 21.8131 17.7973 21.7035 17.7973H21.6937V17.7028H21.7377C21.8969 17.7023 21.9428 17.5989 21.9447 17.4051V16.3796C21.9446 16.2499 21.839 16.1715 21.7352 16.1715H21.6937V16.0772H21.7035C21.7962 16.0772 21.8904 16.0867 21.9817 16.0867C22.0534 16.0867 22.1228 16.0772 22.2047 16.081L23.2664 17.2851V16.3898C23.2656 16.1965 23.1369 16.173 23.0664 16.1715H23.0028V16.0772H23.0138C23.1273 16.0772 23.2388 16.0867 23.3514 16.0867C23.4503 16.0867 23.5489 16.0772 23.6493 16.0772H23.6594V16.1715H23.6128C23.5132 16.174 23.4104 16.1833 23.4084 16.47V17.5775C23.4084 17.6627 23.4103 17.7477 23.422 17.8217L23.4241 17.8337H23.4125ZM25.3248 17.7973C25.2159 17.793 25.1074 17.7875 24.9921 17.7875C24.8742 17.7875 24.7531 17.793 24.63 17.7973L24.6193 17.7979V17.7032H24.6561C24.7123 17.7032 24.7955 17.6902 24.7956 17.6433C24.7962 17.6155 24.7744 17.5491 24.7472 17.4714L24.6556 17.196H24.1222L24.0475 17.442C24.0232 17.5254 23.9947 17.5891 23.9949 17.6285C23.9949 17.6881 24.0856 17.7032 24.1654 17.7032H24.2024V17.7979L24.1915 17.7973C24.095 17.793 23.996 17.7875 23.8998 17.7875C23.8132 17.7875 23.7265 17.793 23.6393 17.7973L23.6288 17.7979V17.7032H23.653C23.7431 17.7028 23.8185 17.6508 23.8539 17.552L24.2403 16.4348C24.2713 16.3447 24.315 16.2236 24.3362 16.1267C24.4121 16.1002 24.5091 16.0513 24.5561 16.0219C24.5624 16.0195 24.5691 16.0166 24.579 16.0166C24.5852 16.016 24.5979 16.0176 24.6053 16.0309C24.6127 16.05 24.6198 16.0721 24.6277 16.0918L25.072 17.3648C25.1011 17.45 25.1299 17.54 25.1613 17.6126C25.1897 17.677 25.2334 17.7026 25.3107 17.7032H25.3357V17.7979L25.3248 17.7973ZM24.1753 17.0387H24.598L24.3878 16.3868L24.1753 17.0387ZM26.6856 17.7973C26.4725 17.7973 26.2597 17.7875 26.0478 17.7875C25.8352 17.7875 25.6226 17.7973 25.4095 17.7973H25.3993V17.7032H25.4434C25.5308 17.7011 25.6137 17.6949 25.6147 17.5508V16.2994C25.6137 16.181 25.5311 16.173 25.4434 16.1715H25.3993V16.0772H25.4095C25.5382 16.0772 25.6639 16.0867 25.7913 16.0867C25.9143 16.0867 26.0347 16.0772 26.1591 16.0772H26.1688V16.1715H26.0984C26.0046 16.1739 25.9465 16.1696 25.9443 16.2924V17.5482C25.945 17.6392 26.0042 17.6635 26.0797 17.6744C26.1222 17.6774 26.1672 17.6789 26.2137 17.6789C26.2728 17.6789 26.3342 17.6762 26.3966 17.6695C26.495 17.6577 26.5797 17.6004 26.6215 17.5424C26.6588 17.4903 26.6799 17.4236 26.6945 17.3706L26.6965 17.3626H26.7876L26.7855 17.3754C26.7582 17.5145 26.7249 17.6504 26.6956 17.7891L26.6937 17.7973H26.6856ZM26.7455 16.0188C26.8913 16.0188 27 16.1316 27 16.2757C27 16.4197 26.8913 16.5313 26.7455 16.5313C26.6 16.5313 26.4911 16.4197 26.4911 16.2757C26.4911 16.1316 26.6 16.0188 26.7455 16.0188ZM26.7455 16.4836C26.8596 16.4836 26.9468 16.3859 26.9468 16.2757C26.9468 16.1653 26.8606 16.0668 26.7455 16.0668C26.631 16.0668 26.5439 16.1653 26.5439 16.2757C26.5439 16.3859 26.631 16.4836 26.7455 16.4836ZM26.619 16.4108V16.3984C26.6501 16.3939 26.6559 16.3947 26.6559 16.3755V16.1856C26.6559 16.1588 26.6533 16.1496 26.62 16.1511V16.138H26.7502C26.7949 16.138 26.8362 16.1596 26.8362 16.2062C26.8362 16.2443 26.8113 16.2725 26.776 16.2835L26.8179 16.3423C26.8374 16.3688 26.8596 16.3939 26.8739 16.4027V16.4108H26.8244C26.8006 16.4108 26.7796 16.3605 26.7329 16.293H26.7048V16.3779C26.7048 16.3947 26.7106 16.3939 26.7419 16.3984V16.4108H26.619ZM26.7048 16.2757H26.7348C26.7676 16.2757 26.7828 16.2507 26.7828 16.2103C26.7828 16.1695 26.7594 16.1551 26.7331 16.1551H26.7048V16.2757Z" fill="#1A1918"/>
<path d="M17.8774 6.49221C17.8757 5.37959 17.2078 4.4307 16.2665 4.05491V8.92931C17.2078 8.55304 17.8757 7.60501 17.8774 6.49221ZM14.4711 8.92834V4.05539C13.5307 4.43235 12.8638 5.37988 12.8612 6.49221C12.8638 7.60424 13.5307 8.55168 14.4711 8.92834ZM15.3693 2.3722C13.1839 2.37307 11.4134 4.21687 11.4131 6.49221C11.4134 8.76725 13.1839 10.6108 15.3693 10.6111C17.5546 10.6108 19.3255 8.76725 19.326 6.49221C19.3255 4.21687 17.5546 2.37307 15.3693 2.3722ZM15.3596 10.9999C12.9682 11.0118 11 8.99466 11 6.5392C11 3.85565 12.9682 1.99951 15.3596 2H16.4802C18.8433 1.99951 21 3.85478 21 6.5392C21 8.99379 18.8433 10.9999 16.4802 10.9999H15.3596Z" fill="#0069AA"/>
</svg>
