<svg width="17" height="16" viewBox="0 0 17 16" fill="none" xmlns="http://www.w3.org/2000/svg">
<path d="M14.5716 3.5H4.9375C3.875 3.5 3 4.35969 3 5.41656V13.0834C3 14.1403 3.875 15 4.9375 15H14.5625C15.625 15 16.5 14.1819 16.5 13.125V5.41656C16.5 4.35969 15.635 3.5 14.5716 3.5ZM12.1606 5.41687C12.4446 5.4186 12.7216 5.50438 12.9569 5.66338C13.1921 5.82238 13.375 6.04749 13.4824 6.3103C13.5899 6.57312 13.6171 6.86187 13.5607 7.14014C13.5042 7.41841 13.3666 7.67373 13.1653 7.87389C12.9639 8.07406 12.7077 8.2101 12.4291 8.26486C12.1505 8.31962 11.8619 8.29065 11.5998 8.18159C11.3376 8.07254 11.1136 7.88829 10.956 7.65209C10.7985 7.41589 10.7144 7.13831 10.7144 6.85437C10.7159 6.47204 10.869 6.10591 11.1401 5.83635C11.4113 5.56679 11.7783 5.41581 12.1606 5.41656V5.41687ZM4.92469 14.0419C4.39344 14.0419 3.99156 13.6122 3.99156 13.0837V11.0578L6.81844 8.53312C7.09479 8.29003 7.45304 8.16076 7.82095 8.17137C8.18885 8.18198 8.53905 8.33169 8.80094 8.59031L10.7584 10.5312L7.22719 14.0416L4.92469 14.0419ZM15.5 13.0834C15.5 13.2094 15.4751 13.3341 15.4268 13.4504C15.3786 13.5667 15.3079 13.6724 15.2187 13.7614C15.1296 13.8504 15.0238 13.9209 14.9074 13.969C14.791 14.0171 14.6663 14.0417 14.5403 14.0416H8.59375L12.2525 10.4062C12.5121 10.1872 12.8407 10.0667 13.1803 10.0657C13.52 10.0648 13.8492 10.1836 14.11 10.4012L15.5 11.5809V13.0834Z" fill="#004D99"/>
<path d="M12.5 1H2.5C1.96957 1 1.46086 1.21071 1.08579 1.58579C0.710714 1.96086 0.5 2.46957 0.5 3L0.5 11C0.500366 11.4434 0.647825 11.8742 0.919271 12.2248C1.19072 12.5754 1.57081 12.8261 2 12.9375V4.75C2 4.15326 2.23705 3.58097 2.65901 3.15901C3.08097 2.73705 3.65326 2.5 4.25 2.5H14.4375C14.3261 2.07081 14.0754 1.69072 13.7248 1.41927C13.3742 1.14782 12.9434 1.00037 12.5 1Z" fill="#004D99"/>
</svg>
