<svg width="32" height="20" viewBox="0 0 32 20" fill="none" xmlns="http://www.w3.org/2000/svg">
<path d="M28.5 0.5H3.5C2.39543 0.5 1.5 1.39543 1.5 2.5V17.5C1.5 18.6046 2.39543 19.5 3.5 19.5H28.5C29.6046 19.5 30.5 18.6046 30.5 17.5V2.5C30.5 1.39543 29.6046 0.5 28.5 0.5Z" fill="white" stroke="#E6772F"/>
<path d="M7.03845 20H29L31 18V11.2327C31 11.2327 22.5374 17.2893 7.03845 20Z" fill="#E7772F"/>
<path d="M5.15381 9.94067C4.89663 10.1546 4.56923 10.2482 4.04569 10.2482H3.82845V7.69486H4.04569C4.56923 7.69486 4.88407 7.78213 5.15381 8.00674C5.43224 8.23885 5.59956 8.59691 5.59956 8.96726C5.59956 9.33941 5.43224 9.71021 5.15381 9.94067ZM4.20786 7.04082H3.01923V10.9025H4.20061C4.82931 10.9025 5.28312 10.7632 5.68089 10.4559C6.15338 10.0918 6.43375 9.54213 6.43375 8.97266C6.43375 7.83266 5.51904 7.04082 4.20786 7.04082Z" fill="#1A1918"/>
<path d="M6.80688 7.04082H7.61289V10.9025H6.80688V7.04082Z" fill="#1A1918"/>
<path d="M9.59224 8.52089C9.10574 8.35475 8.96354 8.2441 8.96354 8.03538C8.96354 7.79278 9.21766 7.6088 9.56712 7.6088C9.80932 7.6088 10.0088 7.69906 10.2214 7.91963L10.6422 7.40563C10.2945 7.12074 9.87841 6.9765 9.42476 6.9765C8.69074 6.9765 8.13129 7.45196 8.13129 8.08066C8.13129 8.61445 8.39137 8.88524 9.15035 9.14239C9.4676 9.2451 9.6288 9.31527 9.71044 9.3628C9.87213 9.46011 9.95265 9.59956 9.95265 9.76074C9.95265 10.0749 9.68532 10.3058 9.32395 10.3058C8.93923 10.3058 8.62794 10.1264 8.44161 9.78968L7.92017 10.2599C8.29297 10.7685 8.73986 10.9958 9.35551 10.9958C10.1952 10.9958 10.7868 10.4724 10.7868 9.72686C10.7868 9.11255 10.5124 8.83411 9.59224 8.52089Z" fill="#1A1918"/>
<path d="M11.041 8.97266C11.041 10.1083 11.9983 10.9883 13.2308 10.9883C13.5783 10.9883 13.8762 10.9244 14.2431 10.7632V9.87575C13.9189 10.1791 13.6343 10.2987 13.2662 10.2987C12.4518 10.2987 11.875 9.7501 11.875 8.96726C11.875 8.2276 12.4705 7.64164 13.2308 7.64164C13.6144 7.64164 13.9075 7.76819 14.2431 8.07601V7.18957C13.8886 7.02268 13.5978 6.95356 13.2474 6.95356C12.022 6.95356 11.041 7.8508 11.041 8.97266Z" fill="#1A1918"/>
<path d="M20.7961 9.63344L19.6901 7.04082H18.8082L20.5665 11H21.0001L22.7925 7.04082H21.9176L20.7961 9.63344Z" fill="#1A1918"/>
<path d="M23.1595 10.9025H25.4532V10.2482H23.9687V9.20581H25.3968V8.55162H23.9687V7.69486H25.4532V7.04082H23.1595V10.9025Z" fill="#1A1918"/>
<path d="M27.033 8.81657H26.7982V7.64853H27.0462C27.5515 7.64853 27.8222 7.846 27.8222 8.22221C27.8222 8.60875 27.5515 8.81657 27.033 8.81657ZM28.6551 8.18022C28.6551 7.45706 28.1224 7.04082 27.1885 7.04082H25.9872V10.9025H26.7982V9.34991H26.9033L28.0208 10.9025H29.0159L27.711 9.27494C28.3208 9.15888 28.6551 8.77114 28.6551 8.18022Z" fill="#1A1918"/>
<path d="M18.83 8.98165C18.83 10.0935 17.9283 10.9946 16.8149 10.9946C15.7019 10.9946 14.8 10.0935 14.8 8.98165C14.8 7.86969 15.7019 6.9684 16.8149 6.9684C17.9283 6.9684 18.83 7.86969 18.83 8.98165Z" fill="#E7772F"/>
</svg>
