<svg width="12" height="12" viewBox="0 0 12 12" fill="none" xmlns="http://www.w3.org/2000/svg">
<path d="M7.32545 6.00016L11.0364 2.28922C11.2125 2.11341 11.3116 1.87484 11.3118 1.62599C11.312 1.37714 11.2134 1.13839 11.0376 0.962271C10.8618 0.78615 10.6232 0.687084 10.3743 0.686864C10.1255 0.686644 9.88673 0.785289 9.71061 0.961099L5.99967 4.67204L2.28874 0.961099C2.11262 0.784979 1.87374 0.686035 1.62467 0.686035C1.3756 0.686035 1.13673 0.784979 0.960611 0.961099C0.78449 1.13722 0.685547 1.37609 0.685547 1.62516C0.685547 1.87423 0.78449 2.1131 0.960611 2.28922L4.67155 6.00016L0.960611 9.7111C0.78449 9.88722 0.685547 10.1261 0.685547 10.3752C0.685547 10.6242 0.78449 10.8631 0.960611 11.0392C1.13673 11.2153 1.3756 11.3143 1.62467 11.3143C1.87374 11.3143 2.11262 11.2153 2.28874 11.0392L5.99967 7.32829L9.71061 11.0392C9.88673 11.2153 10.1256 11.3143 10.3747 11.3143C10.6237 11.3143 10.8626 11.2153 11.0387 11.0392C11.2149 10.8631 11.3138 10.6242 11.3138 10.3752C11.3138 10.1261 11.2149 9.88722 11.0387 9.7111L7.32545 6.00016Z" fill="white"/>
</svg>
